{
.appVersion = "3343";
.formatVersion = 3;
axes = (
{
name = Weight;
tag = wght;
},
{
name = Width;
tag = wdth;
},
{
name = XOPQ;
tag = XOPQ;
},
{
name = XTRA;
tag = XTRA;
},
{
name = YOPQ;
tag = YOPQ;
},
{
name = YTRA;
tag = YTRA;
},
{
name = YTLC;
tag = YTLC;
},
{
name = YTAS;
tag = YTAS;
},
{
name = YTDE;
tag = YTDE;
},
{
name = NIBX;
tag = NIBX;
},
{
name = NIBS;
tag = NIBS;
},
{
name = NIBC;
tag = NIBC;
}
);
date = "2015-05-08 17:09:15 +0000";
familyName = "Libre Clarendon Parametrc";
featurePrefixes = (
{
automatic = 1;
code = "languagesystem DFLT dflt;

languagesystem latn dflt;
";
name = Languagesystems;
}
);
features = (
{
automatic = 1;
code = "feature ordn;
";
tag = aalt;
},
{
automatic = 1;
code = "lookup ccmp_latn_1 {
	lookupflag 0;
	sub fi by f i;
	sub fl by f l;
	sub lj by l j;
	sub Lj by L j;
	sub LJ by L J;
	sub nj by n j;
	sub Nj by N j;
	sub NJ by N J;
	sub dz by d z;
	sub Dz by D z;
	sub DZ by D Z;
} ccmp_latn_1;

script latn;
lookup ccmp_latn_1;
";
tag = ccmp;
},
{
automatic = 1;
code = "sub [zero one two three four five six seven eight nine] [A a]' by ordfeminine;
sub [zero one two three four five six seven eight nine] [O o]' by ordmasculine;
sub N o period by numero;
";
tag = ordn;
},
{
automatic = 1;
code = "lookupflag IgnoreMarks;
sub f f i by f_f_i;
sub f f l by f_f_l;
sub f f by f_f;
sub f i by fi;
sub f l by fl;
";
tag = liga;
}
);
fontMaster = (
{
axesValues = (
68,
220,
0,
0,
0,
0,
0,
0,
0,
0,
0,
0
);
customParameters = (
{
name = typoAscender;
value = 924;
},
{
name = typoDescender;
value = -326;
},
{
name = typoLineGap;
value = 0;
},
{
name = winAscent;
value = 924;
},
{
name = winDescent;
value = -326;
}
);
id = "5DAEE4C7-75B6-49C7-8B62-3AAE62732CCA";
metricValues = (
{
over = -10;
},
{
over = 10;
pos = 630;
},
{
over = 10;
pos = 450;
},
{
over = -10;
},
{
over = -10;
},
{
},
{
over = 10;
pos = 665;
},
{
over = -10;
pos = -216;
}
);
name = Regular;
stemValues = (
52,
73
);
},
{
axesValues = (
250,
0,
0,
0,
0,
0,
0,
0,
0,
0,
0,
0
);

glyphs = (
{
color = 0;
glyphname = H;
lastChange = "2025-06-27 05:07:57 +0000";
layers = (
{
layerId = "5DAEE4C7-75B6-49C7-8B62-3AAE62732CCA";
name = "Light Condensed";
shapes = (
{
closed = 1;
nodes = (
(19,0,l),
(278,0,l),
(278,50,l),
(211,50,ls),
(193,50,o),
(186,64,o),
(186,84,c),
(186,546,l),
(186,566,o),
(193,580,o),
(211,580,cs),
(278,580,l),
(278,630,l),
(18,630,l),
(18,580,l),
(84,580,ls),
(106,580,o),
(113,566,o),
(113,546,cs),
(113,84,ls),
(113,64,o),
(106,50,o),
(84,50,cs),
(19,50,l)
);
},
{
closed = 1;
nodes = (
(168,297,l),
(560,297,l),
(557,349,l),
(170,349,l)
);
},
{
closed = 1;
nodes = (
(439,0,l),
(699,0,l),
(699,50,l),
(631,50,ls),
(612,50,o),
(605,64,o),
(605,84,cs),
(605,546,ls),
(605,566,o),
(612,580,o),
(631,580,cs),
(700,580,l),
(700,630,l),
(439,630,l),
(439,580,l),
(504,580,ls),
(526,580,o),
(532,566,o),
(532,546,c),
(532,84,l),
(532,64,o),
(525,50,o),
(504,50,cs),
(439,50,l)
);
}
);
width = 718;
},
{
layerId = m002;
shapes = (
{
closed = 1;
nodes = (
(19,0,l),
(278,0,l),
(278,50,l),
(211,50,ls),
(193,50,o),
(186,64,o),
(186,84,c),
(186,546,l),
(186,566,o),
(193,580,o),
(211,580,cs),
(278,580,l),
(278,630,l),
(18,630,l),
(18,580,l),
(84,580,ls),
(106,580,o),
(113,566,o),
(113,546,cs),
(113,84,ls),
(113,64,o),
(106,50,o),
(84,50,cs),
(19,50,l)
);
},
{
closed = 1;
nodes = (
(168,297,l),
(560,297,l),
(557,349,l),
(170,349,l)
);
},
{
closed = 1;
nodes = (
(439,0,l),
(699,0,l),
(699,50,l),
(631,50,ls),
(612,50,o),
(605,64,o),
(605,84,cs),
(605,546,ls),
(605,566,o),
(612,580,o),
(631,580,cs),
(700,580,l),
(700,630,l),
(439,630,l),
(439,580,l),
(504,580,ls),
(526,580,o),
(532,566,o),
(532,546,c),
(532,84,l),
(532,64,o),
(525,50,o),
(504,50,cs),
(439,50,l)
);
}
);
width = 718;
},
{
layerId = m003;
shapes = (
{
closed = 1;
nodes = (
(19,0,l),
(278,0,l),
(278,50,l),
(211,50,ls),
(193,50,o),
(186,64,o),
(186,84,c),
(186,546,l),
(186,566,o),
(193,580,o),
(211,580,cs),
(278,580,l),
(278,630,l),
(18,630,l),
(18,580,l),
(84,580,ls),
(106,580,o),
(113,566,o),
(113,546,cs),
(113,84,ls),
(113,64,o),
(106,50,o),
(84,50,cs),
(19,50,l)
);
},
{
closed = 1;
nodes = (
(168,297,l),
(560,297,l),
(557,349,l),
(170,349,l)
);
},
{
closed = 1;
nodes = (
(439,0,l),
(699,0,l),
(699,50,l),
(631,50,ls),
(612,50,o),
(605,64,o),
(605,84,cs),
(605,546,ls),
(605,566,o),
(612,580,o),
(631,580,cs),
(700,580,l),
(700,630,l),
(439,630,l),
(439,580,l),
(504,580,ls),
(526,580,o),
(532,566,o),
(532,546,c),
(532,84,l),
(532,64,o),
(525,50,o),
(504,50,cs),
(439,50,l)
);
}
);
width = 718;
},
{
layerId = m004;
shapes = (
{
closed = 1;
nodes = (
(19,0,l),
(278,0,l),
(278,50,l),
(211,50,ls),
(193,50,o),
(186,64,o),
(186,84,c),
(186,546,l),
(186,566,o),
(193,580,o),
(211,580,cs),
(278,580,l),
(278,630,l),
(18,630,l),
(18,580,l),
(84,580,ls),
(106,580,o),
(113,566,o),
(113,546,cs),
(113,84,ls),
(113,64,o),
(106,50,o),
(84,50,cs),
(19,50,l)
);
},
{
closed = 1;
nodes = (
(168,297,l),
(560,297,l),
(557,349,l),
(170,349,l)
);
},
{
closed = 1;
nodes = (
(439,0,l),
(699,0,l),
(699,50,l),
(631,50,ls),
(612,50,o),
(605,64,o),
(605,84,cs),
(605,546,ls),
(605,566,o),
(612,580,o),
(631,580,cs),
(700,580,l),
(700,630,l),
(439,630,l),
(439,580,l),
(504,580,ls),
(526,580,o),
(532,566,o),
(532,546,c),
(532,84,l),
(532,64,o),
(525,50,o),
(504,50,cs),
(439,50,l)
);
}
);
width = 718;
},
{
layerId = "E4C98B95-3FAD-4F96-AF6D-989EFF3D42C0";
shapes = (
{
closed = 1;
nodes = (
(19,0,l),
(278,0,l),
(278,50,l),
(211,50,ls),
(193,50,o),
(186,64,o),
(186,84,c),
(186,546,l),
(186,566,o),
(193,580,o),
(211,580,cs),
(278,580,l),
(278,630,l),
(18,630,l),
(18,580,l),
(84,580,ls),
(106,580,o),
(113,566,o),
(113,546,cs),
(113,84,ls),
(113,64,o),
(106,50,o),
(84,50,cs),
(19,50,l)
);
},
{
closed = 1;
nodes = (
(168,297,l),
(560,297,l),
(557,349,l),
(170,349,l)
);
},
{
closed = 1;
nodes = (
(439,0,l),
(699,0,l),
(699,50,l),
(631,50,ls),
(612,50,o),
(605,64,o),
(605,84,cs),
(605,546,ls),
(605,566,o),
(612,580,o),
(631,580,cs),
(700,580,l),
(700,630,l),
(439,630,l),
(439,580,l),
(504,580,ls),
(526,580,o),
(532,566,o),
(532,546,c),
(532,84,l),
(532,64,o),
(525,50,o),
(504,50,cs),
(439,50,l)
);
}
);
width = 718;
},
{
layerId = m007;
shapes = (
{
closed = 1;
nodes = (
(19,0,l),
(278,0,l),
(278,50,l),
(211,50,ls),
(193,50,o),
(186,64,o),
(186,84,c),
(186,546,l),
(186,566,o),
(193,580,o),
(211,580,cs),
(278,580,l),
(278,630,l),
(18,630,l),
(18,580,l),
(84,580,ls),
(106,580,o),
(113,566,o),
(113,546,cs),
(113,84,ls),
(113,64,o),
(106,50,o),
(84,50,cs),
(19,50,l)
);
},
{
closed = 1;
nodes = (
(168,297,l),
(560,297,l),
(557,349,l),
(170,349,l)
);
},
{
closed = 1;
nodes = (
(439,0,l),
(699,0,l),
(699,50,l),
(631,50,ls),
(612,50,o),
(605,64,o),
(605,84,cs),
(605,546,ls),
(605,566,o),
(612,580,o),
(631,580,cs),
(700,580,l),
(700,630,l),
(439,630,l),
(439,580,l),
(504,580,ls),
(526,580,o),
(532,566,o),
(532,546,c),
(532,84,l),
(532,64,o),
(525,50,o),
(504,50,cs),
(439,50,l)
);
}
);
width = 718;
},
{
layerId = m006;
shapes = (
{
closed = 1;
nodes = (
(19,0,l),
(278,0,l),
(278,50,l),
(211,50,ls),
(193,50,o),
(186,64,o),
(186,84,c),
(186,546,l),
(186,566,o),
(193,580,o),
(211,580,cs),
(278,580,l),
(278,630,l),
(18,630,l),
(18,580,l),
(84,580,ls),
(106,580,o),
(113,566,o),
(113,546,cs),
(113,84,ls),
(113,64,o),
(106,50,o),
(84,50,cs),
(19,50,l)
);
},
{
closed = 1;
nodes = (
(168,297,l),
(560,297,l),
(557,349,l),
(170,349,l)
);
},
{
closed = 1;
nodes = (
(439,0,l),
(699,0,l),
(699,50,l),
(631,50,ls),
(612,50,o),
(605,64,o),
(605,84,cs),
(605,546,ls),
(605,566,o),
(612,580,o),
(631,580,cs),
(700,580,l),
(700,630,l),
(439,630,l),
(439,580,l),
(504,580,ls),
(526,580,o),
(532,566,o),
(532,546,c),
(532,84,l),
(532,64,o),
(525,50,o),
(504,50,cs),
(439,50,l)
);
}
);
width = 718;
},
{
layerId = m008;
shapes = (
{
closed = 1;
nodes = (
(19,0,l),
(278,0,l),
(278,50,l),
(211,50,ls),
(193,50,o),
(186,64,o),
(186,84,c),
(186,546,l),
(186,566,o),
(193,580,o),
(211,580,cs),
(278,580,l),
(278,630,l),
(18,630,l),
(18,580,l),
(84,580,ls),
(106,580,o),
(113,566,o),
(113,546,cs),
(113,84,ls),
(113,64,o),
(106,50,o),
(84,50,cs),
(19,50,l)
);
},
{
closed = 1;
nodes = (
(168,297,l),
(560,297,l),
(557,349,l),
(170,349,l)
);
},
{
closed = 1;
nodes = (
(439,0,l),
(699,0,l),
(699,50,l),
(631,50,ls),
(612,50,o),
(605,64,o),
(605,84,cs),
(605,546,ls),
(605,566,o),
(612,580,o),
(631,580,cs),
(700,580,l),
(700,630,l),
(439,630,l),
(439,580,l),
(504,580,ls),
(526,580,o),
(532,566,o),
(532,546,c),
(532,84,l),
(532,64,o),
(525,50,o),
(504,50,cs),
(439,50,l)
);
}
);
width = 718;
},
{
layerId = m009;
shapes = (
{
closed = 1;
nodes = (
(19,0,l),
(278,0,l),
(278,50,l),
(211,50,ls),
(193,50,o),
(186,64,o),
(186,84,c),
(186,546,l),
(186,566,o),
(193,580,o),
(211,580,cs),
(278,580,l),
(278,630,l),
(18,630,l),
(18,580,l),
(84,580,ls),
(106,580,o),
(113,566,o),
(113,546,cs),
(113,84,ls),
(113,64,o),
(106,50,o),
(84,50,cs),
(19,50,l)
);
},
{
closed = 1;
nodes = (
(168,297,l),
(560,297,l),
(557,349,l),
(170,349,l)
);
},
{
closed = 1;
nodes = (
(439,0,l),
(699,0,l),
(699,50,l),
(631,50,ls),
(612,50,o),
(605,64,o),
(605,84,cs),
(605,546,ls),
(605,566,o),
(612,580,o),
(631,580,cs),
(700,580,l),
(700,630,l),
(439,630,l),
(439,580,l),
(504,580,ls),
(526,580,o),
(532,566,o),
(532,546,c),
(532,84,l),
(532,64,o),
(525,50,o),
(504,50,cs),
(439,50,l)
);
}
);
width = 718;
},
{
layerId = m010;
shapes = (
{
closed = 1;
nodes = (
(19,0,l),
(278,0,l),
(278,50,l),
(211,50,ls),
(193,50,o),
(186,64,o),
(186,84,c),
(186,546,l),
(186,566,o),
(193,580,o),
(211,580,cs),
(278,580,l),
(278,630,l),
(18,630,l),
(18,580,l),
(84,580,ls),
(106,580,o),
(113,566,o),
(113,546,cs),
(113,84,ls),
(113,64,o),
(106,50,o),
(84,50,cs),
(19,50,l)
);
},
{
closed = 1;
nodes = (
(168,297,l),
(560,297,l),
(557,349,l),
(170,349,l)
);
},
{
closed = 1;
nodes = (
(439,0,l),
(699,0,l),
(699,50,l),
(631,50,ls),
(612,50,o),
(605,64,o),
(605,84,cs),
(605,546,ls),
(605,566,o),
(612,580,o),
(631,580,cs),
(700,580,l),
(700,630,l),
(439,630,l),
(439,580,l),
(504,580,ls),
(526,580,o),
(532,566,o),
(532,546,c),
(532,84,l),
(532,64,o),
(525,50,o),
(504,50,cs),
(439,50,l)
);
}
);
width = 718;
},
{
layerId = m011;
shapes = (
{
closed = 1;
nodes = (
(19,0,l),
(278,0,l),
(278,50,l),
(211,50,ls),
(193,50,o),
(186,64,o),
(186,84,c),
(186,546,l),
(186,566,o),
(193,580,o),
(211,580,cs),
(278,580,l),
(278,630,l),
(18,630,l),
(18,580,l),
(84,580,ls),
(106,580,o),
(113,566,o),
(113,546,cs),
(113,84,ls),
(113,64,o),
(106,50,o),
(84,50,cs),
(19,50,l)
);
},
{
closed = 1;
nodes = (
(168,297,l),
(560,297,l),
(557,349,l),
(170,349,l)
);
},
{
closed = 1;
nodes = (
(439,0,l),
(699,0,l),
(699,50,l),
(631,50,ls),
(612,50,o),
(605,64,o),
(605,84,cs),
(605,546,ls),
(605,566,o),
(612,580,o),
(631,580,cs),
(700,580,l),
(700,630,l),
(439,630,l),
(439,580,l),
(504,580,ls),
(526,580,o),
(532,566,o),
(532,546,c),
(532,84,l),
(532,64,o),
(525,50,o),
(504,50,cs),
(439,50,l)
);
}
);
width = 718;
},
{
layerId = m012;
shapes = (
{
closed = 1;
nodes = (
(19,0,l),
(278,0,l),
(278,50,l),
(211,50,ls),
(193,50,o),
(186,64,o),
(186,84,c),
(186,546,l),
(186,566,o),
(193,580,o),
(211,580,cs),
(278,580,l),
(278,630,l),
(18,630,l),
(18,580,l),
(84,580,ls),
(106,580,o),
(113,566,o),
(113,546,cs),
(113,84,ls),
(113,64,o),
(106,50,o),
(84,50,cs),
(19,50,l)
);
},
{
closed = 1;
nodes = (
(168,297,l),
(560,297,l),
(557,349,l),
(170,349,l)
);
},
{
closed = 1;
nodes = (
(439,0,l),
(699,0,l),
(699,50,l),
(631,50,ls),
(612,50,o),
(605,64,o),
(605,84,cs),
(605,546,ls),
(605,566,o),
(612,580,o),
(631,580,cs),
(700,580,l),
(700,630,l),
(439,630,l),
(439,580,l),
(504,580,ls),
(526,580,o),
(532,566,o),
(532,546,c),
(532,84,l),
(532,64,o),
(525,50,o),
(504,50,cs),
(439,50,l)
);
}
);
width = 718;
},
{
layerId = m013;
shapes = (
{
closed = 1;
nodes = (
(19,0,l),
(278,0,l),
(278,50,l),
(211,50,ls),
(193,50,o),
(186,64,o),
(186,84,c),
(186,546,l),
(186,566,o),
(193,580,o),
(211,580,cs),
(278,580,l),
(278,630,l),
(18,630,l),
(18,580,l),
(84,580,ls),
(106,580,o),
(113,566,o),
(113,546,cs),
(113,84,ls),
(113,64,o),
(106,50,o),
(84,50,cs),
(19,50,l)
);
},
{
closed = 1;
nodes = (
(168,297,l),
(560,297,l),
(557,349,l),
(170,349,l)
);
},
{
closed = 1;
nodes = (
(439,0,l),
(699,0,l),
(699,50,l),
(631,50,ls),
(612,50,o),
(605,64,o),
(605,84,cs),
(605,546,ls),
(605,566,o),
(612,580,o),
(631,580,cs),
(700,580,l),
(700,630,l),
(439,630,l),
(439,580,l),
(504,580,ls),
(526,580,o),
(532,566,o),
(532,546,c),
(532,84,l),
(532,64,o),
(525,50,o),
(504,50,cs),
(439,50,l)
);
}
);
width = 718;
}
);
unicode = 72;
},
{
color = 11;
export = 0;
glyphname = A;
kernLeft = A;
kernRight = A;
lastChange = "2025-06-27 05:07:40 +0000";
layers = (
{
layerId = "5DAEE4C7-75B6-49C7-8B62-3AAE62732CCA";
name = "Light Condensed";
shapes = (
{
closed = 1;
nodes = (
(5,0,l),
(247,0,l),
(247,50,l),
(185,50,ls),
(164,50,o),
(155,58,o),
(155,72,cs),
(155,78,o),
(157,85,o),
(159,91,cs),
(331,563,l),
(335,563,l),
(506,91,ls),
(508,85,o),
(509,78,o),
(509,73,cs),
(509,58,o),
(499,50,o),
(479,50,cs),
(418,50,l),
(418,0,l),
(682,0,l),
(682,50,l),
(632,50,ls),
(606,50,o),
(596,60,o),
(585,91,cs),
(386,630,l),
(298,630,l),
(99,89,ls),
(87,57,o),
(78,50,o),
(54,50,cs),
(5,50,l)
);
},
{
closed = 1;
nodes = (
(201,231,l),
(476,231,l),
(467,281,l),
(210,281,l)
);
}
);
width = 686;
},
{
layerId = m002;
width = 600;
},
{
layerId = m003;
width = 600;
},
{
layerId = m004;
width = 600;
},
{
layerId = "E4C98B95-3FAD-4F96-AF6D-989EFF3D42C0";
width = 600;
},
{
layerId = m007;
width = 600;
},
{
layerId = m006;
width = 600;
},
{
layerId = m008;
width = 600;
},
{
layerId = m009;
width = 600;
},
{
layerId = m010;
width = 600;
},
{
layerId = m011;
width = 600;
},
{
layerId = m012;
width = 600;
},
{
layerId = m013;
width = 600;
}
);
unicode = 65;
},
{
color = 11;
export = 0;
glyphname = AE;
kernLeft = A;
lastChange = "2025-06-27 05:07:40 +0000";
layers = (
{
layerId = "5DAEE4C7-75B6-49C7-8B62-3AAE62732CCA";
name = "Light Condensed";
shapes = (
{
closed = 1;
nodes = (
(5,0,l),
(252,0,l),
(252,50,l),
(204,50,ls),
(179,50,o),
(167,59,o),
(167,72,cs),
(167,77,o),
(169,82,o),
(174,89,cs),
(491,555,l),
(496,555,l),
(533,629,l),
(473,629,l),
(108,87,ls),
(87,57,o),
(75,50,o),
(46,50,cs),
(5,50,l)
);
},
{
closed = 1;
nodes = (
(248,232,l),
(532,232,l),
(526,280,l),
(255,280,l)
);
},
{
closed = 1;
nodes = (
(406,0,l),
(937,0,l),
(937,228,l),
(880,228,l),
(880,79,o),
(867,50,o),
(813,50,cs),
(569,50,l),
(569,295,l),
(683,295,ls),
(723,295,o),
(729,278,o),
(731,186,c),
(778,186,l),
(778,447,l),
(731,447,l),
(729,356,o),
(723,341,o),
(683,341,cs),
(569,341,l),
(569,580,l),
(811,580,ls),
(864,580,o),
(880,549,o),
(880,404,c),
(937,404,l),
(937,630,l),
(308,630,l),
(308,580,l),
(496,580,l),
(496,84,ls),
(496,62,o),
(487,50,o),
(466,50,cs),
(406,50,l)
);
}
);
width = 1005;
},
{
layerId = m002;
width = 600;
}
);
unicode = 198;
},
{
color = 11;
export = 0;
glyphname = B;
lastChange = "2025-06-27 05:07:40 +0000";
layers = (
{
hints = (
{
place = (59,0);
type = Stem;
}
);
layerId = "5DAEE4C7-75B6-49C7-8B62-3AAE62732CCA";
name = "Light Condensed";
shapes = (
{
closed = 1;
nodes = (
(471,331,l),
(536,354,o),
(570,404,o),
(570,476,cs),
(570,574,o),
(507,631,o),
(363,631,cs),
(18,631,l),
(18,581,l),
(80,581,ls),
(104,581,o),
(113,571,o),
(113,547,cs),
(113,82,ls),
(113,61,o),
(103,50,o),
(84,50,cs),
(19,50,l),
(19,0,l),
(378,0,ls),
(515,0,o),
(587,62,o),
(587,169,cs),
(587,253,o),
(543,309,o),
(471,328,c)
);
},
{
closed = 1;
nodes = (
(455,577,o),
(497,541,o),
(497,468,cs),
(497,395,o),
(455,357,o),
(350,357,cs),
(186,357,l),
(186,577,l),
(358,577,ls)
);
},
{
closed = 1;
nodes = (
(186,53,l),
(186,302,l),
(357,302,ls),
(464,302,o),
(511,261,o),
(511,174,cs),
(511,92,o),
(468,53,o),
(360,53,cs)
);
}
);
width = 628;
},
{
layerId = m002;
width = 600;
}
);
metricLeft = H;
unicode = 66;
},
{
color = 11;
export = 0;
glyphname = C;
lastChange = "2025-06-27 05:07:40 +0000";
layers = (
{
layerId = "5DAEE4C7-75B6-49C7-8B62-3AAE62732CCA";
name = "Light Condensed";
shapes = (
{
closed = 1;
nodes = (
(203,48,o),
(135,134,o),
(135,314,cs),
(135,493,o),
(203,582,o),
(340,582,cs),
(442,582,o),
(500,530,o),
(519,400,c),
(574,400,l),
(574,630,l),
(526,630,l),
(517,553,l),
(513,553,l),
(481,605,o),
(423,640,o),
(330,640,cs),
(156,640,o),
(57,527,o),
(57,315,cs),
(57,104,o),
(154,-10,o),
(331,-10,cs),
(491,-10,o),
(581,84,o),
(581,249,c),
(520,249,l),
(519,110,o),
(453,48,o),
(338,48,cs)
);
}
);
width = 633;
},
{
layerId = m002;
width = 600;
}
);
metricLeft = O;
unicode = 67;
},
{
color = 11;
export = 0;
glyphname = D;
lastChange = "2025-06-27 05:07:40 +0000";
layers = (
{
layerId = "5DAEE4C7-75B6-49C7-8B62-3AAE62732CCA";
name = "Light Condensed";
shapes = (
{
closed = 1;
nodes = (
(19,0,l),
(338,0,ls),
(516,0,o),
(627,103,o),
(627,314,cs),
(627,525,o),
(514,630,o),
(336,630,cs),
(18,630,l),
(18,580,l),
(84,580,ls),
(106,580,o),
(113,565,o),
(113,541,cs),
(113,88,ls),
(113,65,o),
(106,50,o),
(84,50,cs),
(19,50,l)
);
},
{
closed = 1;
nodes = (
(186,579,l),
(328,579,ls),
(469,579,o),
(550,506,o),
(550,314,cs),
(550,119,o),
(464,51,o),
(330,51,cs),
(186,51,l)
);
}
);
width = 681;
},
{
layerId = m002;
width = 600;
}
);
metricLeft = H;
unicode = 68;
},
{
color = 11;
export = 0;
glyphname = E;
lastChange = "2025-06-27 05:07:40 +0000";
layers = (
{
layerId = "5DAEE4C7-75B6-49C7-8B62-3AAE62732CCA";
name = "Light Condensed";
shapes = (
{
closed = 1;
nodes = (
(19,0,l),
(552,0,l),
(552,226,l),
(497,226,l),
(497,84,o),
(490,50,o),
(446,50,cs),
(186,50,l),
(186,295,l),
(300,295,ls),
(337,295,o),
(343,275,o),
(344,176,c),
(390,176,l),
(390,457,l),
(344,457,l),
(343,360,o),
(337,341,o),
(300,341,cs),
(186,341,l),
(186,580,l),
(444,580,ls),
(490,580,o),
(497,543,o),
(497,405,c),
(552,405,l),
(552,630,l),
(19,630,l),
(19,580,l),
(83,580,ls),
(105,580,o),
(113,568,o),
(113,544,cs),
(113,84,ls),
(113,62,o),
(104,50,o),
(84,50,cs),
(19,50,l)
);
}
);
width = 621;
},
{
layerId = m002;
width = 600;
}
);
metricLeft = H;
unicode = 69;
},
{
color = 11;
export = 0;
glyphname = Schwa;
lastChange = "2025-06-27 05:07:40 +0000";
layers = (
{
layerId = "5DAEE4C7-75B6-49C7-8B62-3AAE62732CCA";
name = "Light Condensed";
shapes = (
{
closed = 1;
nodes = (
(166,639,o),
(68,543,o),
(68,394,c),
(140,394,l),
(145,510,o),
(215,581,o),
(343,581,cs),
(484,581,o),
(550,496,o),
(550,329,c),
(59,329,l),
(58,315,o),
(58,310,o),
(58,272,cs),
(58,96,o),
(158,-10,o),
(339,-10,cs),
(529,-10,o),
(628,108,o),
(628,316,cs),
(628,523,o),
(529,639,o),
(339,639,cs)
);
},
{
closed = 1;
nodes = (
(549,275,l),
(543,127,o),
(477,48,o),
(343,48,cs),
(203,48,o),
(130,133,o),
(130,275,c)
);
}
);
width = 685;
},
{
layerId = m002;
width = 600;
}
);
unicode = 399;
},
{
color = 11;
export = 0;
glyphname = F;
kernRight = F;
lastChange = "2025-06-27 05:07:40 +0000";
layers = (
{
layerId = "5DAEE4C7-75B6-49C7-8B62-3AAE62732CCA";
name = "Light Condensed";
shapes = (
{
closed = 1;
nodes = (
(19,0,l),
(311,0,l),
(311,50,l),
(220,50,ls),
(199,50,o),
(186,65,o),
(186,90,cs),
(186,290,l),
(313,290,ls),
(343,290,o),
(352,268,o),
(352,182,c),
(397,182,l),
(397,442,l),
(352,442,l),
(352,353,o),
(343,336,o),
(313,336,cs),
(186,336,l),
(186,580,l),
(425,580,ls),
(479,580,o),
(497,559,o),
(497,407,c),
(552,407,l),
(552,630,l),
(19,630,l),
(19,580,l),
(81,580,ls),
(104,580,o),
(113,570,o),
(113,543,cs),
(113,83,ls),
(113,60,o),
(102,50,o),
(84,50,cs),
(19,50,l)
);
}
);
width = 606;
},
{
layerId = m002;
width = 600;
}
);
metricLeft = H;
unicode = 70;
},
{
color = 11;
export = 0;
glyphname = G;
lastChange = "2025-06-27 05:07:40 +0000";
layers = (
{
layerId = "5DAEE4C7-75B6-49C7-8B62-3AAE62732CCA";
name = "Light Condensed";
shapes = (
{
closed = 1;
nodes = (
(203,48,o),
(135,135,o),
(135,314,cs),
(135,494,o),
(204,581,o),
(342,581,cs),
(451,581,o),
(505,523,o),
(523,396,c),
(578,396,l),
(578,630,l),
(529,630,l),
(518,552,l),
(514,552,l),
(479,609,o),
(417,639,o),
(331,639,cs),
(156,639,o),
(57,525,o),
(57,314,cs),
(57,107,o),
(154,-10,o),
(320,-10,cs),
(464,-10,o),
(560,79,o),
(560,215,c),
(514,212,l),
(514,108,o),
(449,48,o),
(338,48,cs)
);
},
{
closed = 1;
nodes = (
(412,275,l),
(483,275,ls),
(505,275,o),
(514,263,o),
(514,240,cs),
(514,74,l),
(518,74,l),
(534,0,l),
(586,0,l),
(586,240,ls),
(586,262,o),
(596,275,o),
(614,275,cs),
(658,275,l),
(658,325,l),
(412,325,l)
);
}
);
width = 670;
},
{
layerId = m002;
width = 600;
}
);
metricLeft = O;
unicode = 71;
},
{
color = 11;
export = 0;
glyphname = I;
lastChange = "2025-06-27 05:07:40 +0000";
layers = (
{
layerId = "5DAEE4C7-75B6-49C7-8B62-3AAE62732CCA";
name = "Light Condensed";
shapes = (
{
closed = 1;
nodes = (
(19,0,l),
(267,0,l),
(267,50,l),
(208,50,ls),
(188,50,o),
(181,64,o),
(181,84,cs),
(181,545,ls),
(181,566,o),
(188,579,o),
(208,579,cs),
(268,579,l),
(268,629,l),
(18,629,l),
(18,579,l),
(77,579,ls),
(101,579,o),
(108,566,o),
(108,545,cs),
(108,84,ls),
(108,64,o),
(100,50,o),
(77,50,cs),
(19,50,l)
);
}
);
width = 286;
},
{
layerId = m002;
width = 600;
}
);
metricLeft = H;
metricRight = H;
unicode = 73;
},
{
color = 11;
export = 0;
glyphname = J;
lastChange = "2025-06-27 05:07:40 +0000";
layers = (
{
layerId = "5DAEE4C7-75B6-49C7-8B62-3AAE62732CCA";
name = "Light Condensed";
shapes = (
{
closed = 1;
nodes = (
(89,164,o),
(125,160,o),
(125,199,cs),
(125,226,o),
(109,240,o),
(83,240,cs),
(44,240,o),
(22,206,o),
(22,148,cs),
(22,45,o),
(86,-10,o),
(209,-10,cs),
(345,-10,o),
(415,57,o),
(415,182,cs),
(415,546,ls),
(415,568,o),
(424,580,o),
(442,580,cs),
(505,580,l),
(505,630,l),
(252,630,l),
(252,580,l),
(315,580,ls),
(334,580,o),
(343,568,o),
(343,546,cs),
(343,183,ls),
(343,91,o),
(298,46,o),
(205,46,cs),
(130,46,o),
(89,75,o),
(89,122,cs)
);
}
);
width = 528;
},
{
layerId = m002;
width = 600;
}
);
unicode = 74;
},
{
color = 11;
export = 0;
glyphname = K;
lastChange = "2025-06-27 05:07:40 +0000";
layers = (
{
layerId = "5DAEE4C7-75B6-49C7-8B62-3AAE62732CCA";
name = "Light Condensed";
shapes = (
{
closed = 1;
nodes = (
(19,0,l),
(279,0,l),
(279,50,l),
(211,50,ls),
(193,50,o),
(186,60,o),
(186,81,cs),
(186,547,ls),
(186,570,o),
(194,580,o),
(215,580,cs),
(278,580,l),
(278,630,l),
(18,630,l),
(18,580,l),
(84,580,ls),
(104,580,o),
(113,568,o),
(113,547,cs),
(113,82,ls),
(113,60,o),
(105,50,o),
(85,50,cs),
(19,50,l)
);
},
{
closed = 1;
nodes = (
(569,563,ls),
(584,577,o),
(598,580,o),
(614,580,cs),
(660,580,l),
(660,630,l),
(411,630,l),
(411,580,l),
(474,580,ls),
(483,580,o),
(488,575,o),
(488,568,cs),
(488,563,o),
(485,558,o),
(480,553,c),
(126,221,l),
(159,184,l)
);
},
{
closed = 1;
nodes = (
(420,0,l),
(682,0,l),
(682,50,l),
(633,50,ls),
(614,50,o),
(602,54,o),
(594,65,cs),
(361,400,l),
(312,343,l),
(500,77,l),
(504,72,o),
(505,68,o),
(505,64,cs),
(505,56,o),
(498,50,o),
(487,50,cs),
(420,50,l)
);
}
);
width = 687;
},
{
layerId = m002;
width = 600;
},
{
layerId = m003;
width = 600;
},
{
layerId = m004;
width = 600;
},
{
layerId = "E4C98B95-3FAD-4F96-AF6D-989EFF3D42C0";
width = 600;
},
{
layerId = m007;
width = 600;
},
{
layerId = m006;
width = 600;
},
{
layerId = m008;
width = 600;
},
{
layerId = m009;
width = 600;
},
{
layerId = m010;
width = 600;
},
{
layerId = m011;
width = 600;
},
{
layerId = m012;
width = 600;
},
{
layerId = m013;
width = 600;
}
);
metricLeft = H;
unicode = 75;
},
{
color = 11;
export = 0;
glyphname = L;
lastChange = "2025-06-27 05:07:40 +0000";
layers = (
{
layerId = "5DAEE4C7-75B6-49C7-8B62-3AAE62732CCA";
name = "Light Condensed";
shapes = (
{
closed = 1;
nodes = (
(19,0,l),
(521,0,l),
(521,255,l),
(465,255,l),
(465,86,o),
(453,50,o),
(397,50,cs),
(186,50,l),
(186,545,ls),
(186,568,o),
(193,580,o),
(215,580,cs),
(303,580,l),
(303,630,l),
(19,630,l),
(19,580,l),
(83,580,ls),
(105,580,o),
(113,568,o),
(113,544,cs),
(113,84,ls),
(113,62,o),
(104,50,o),
(84,50,cs),
(19,50,l)
);
}
);
width = 560;
},
{
layerId = m002;
width = 600;
}
);
metricLeft = H;
unicode = 76;
},
{
color = 11;
export = 0;
glyphname = M;
lastChange = "2025-06-27 05:07:40 +0000";
layers = (
{
layerId = "5DAEE4C7-75B6-49C7-8B62-3AAE62732CCA";
name = "Light Condensed";
shapes = (
{
closed = 1;
nodes = (
(14,0,l),
(250,0,l),
(250,50,l),
(186,50,ls),
(168,50,o),
(161,64,o),
(161,84,c),
(161,630,l),
(14,630,l),
(14,580,l),
(78,580,ls),
(100,580,o),
(107,567,o),
(107,546,cs),
(107,84,ls),
(107,64,o),
(100,50,o),
(78,50,cs),
(14,50,l)
);
},
{
closed = 1;
nodes = (
(561,0,l),
(819,0,l),
(819,50,l),
(751,50,ls),
(732,50,o),
(725,64,o),
(725,84,cs),
(725,546,ls),
(725,567,o),
(732,580,o),
(751,580,cs),
(820,580,l),
(820,630,l),
(652,630,l),
(652,84,l),
(652,64,o),
(645,50,o),
(624,50,cs),
(561,50,l)
);
},
{
closed = 1;
nodes = (
(137,630,l),
(160,546,l),
(165,546,l),
(362,0,l),
(446,0,l),
(648,546,l),
(654,546,l),
(680,630,l),
(621,630,l),
(415,73,l),
(411,73,l),
(212,630,l)
);
}
);
width = 833;
},
{
layerId = m002;
width = 600;
}
);
unicode = 77;
},
{
color = 11;
export = 0;
glyphname = N;
lastChange = "2025-06-27 05:07:40 +0000";
layers = (
{
layerId = "5DAEE4C7-75B6-49C7-8B62-3AAE62732CCA";
name = "Light Condensed";
shapes = (
{
closed = 1;
nodes = (
(270,0,l),
(270,50,l),
(203,50,ls),
(184,50,o),
(177,64,o),
(177,84,cs),
(177,501,l),
(181,501,l),
(538,0,l),
(596,0,l),
(596,546,ls),
(596,566,o),
(603,580,o),
(623,580,cs),
(691,580,l),
(691,630,l),
(438,630,l),
(438,580,l),
(504,580,ls),
(525,580,o),
(532,566,o),
(532,546,cs),
(532,142,l),
(528,142,l),
(178,630,l),
(18,630,l),
(18,580,l),
(84,580,ls),
(106,580,o),
(113,566,o),
(113,546,cs),
(113,84,ls),
(113,64,o),
(106,50,o),
(84,50,cs),
(19,50,l),
(19,0,l)
);
}
);
width = 709;
},
{
layerId = m002;
width = 600;
}
);
metricLeft = H;
unicode = 78;
},
{
color = 11;
export = 0;
glyphname = Eng;
lastChange = "2025-06-27 05:07:40 +0000";
layers = (
{
layerId = "5DAEE4C7-75B6-49C7-8B62-3AAE62732CCA";
name = "Light Condensed";
shapes = (
{
closed = 1;
nodes = (
(24,0,l),
(268,0,l),
(268,50,l),
(208,50,ls),
(190,50,o),
(183,64,o),
(183,84,cs),
(183,502,l),
(187,502,l),
(540,0,l),
(605,0,l),
(605,546,ls),
(605,566,o),
(612,580,o),
(632,580,cs),
(695,580,l),
(695,630,l),
(447,630,l),
(447,580,l),
(508,580,ls),
(529,580,o),
(536,566,o),
(536,546,cs),
(536,149,l),
(532,149,l),
(189,630,l),
(23,630,l),
(23,580,l),
(84,580,ls),
(106,580,o),
(113,566,o),
(113,546,cs),
(113,84,ls),
(113,64,o),
(106,50,o),
(84,50,cs),
(24,50,l)
);
},
{
closed = 1;
nodes = (
(548,-226,o),
(605,-166,o),
(605,-47,cs),
(605,450,l),
(537,450,l),
(537,-54,ls),
(537,-139,o),
(508,-181,o),
(450,-181,cs),
(415,-181,o),
(390,-165,o),
(390,-139,cs),
(390,-117,o),
(411,-113,o),
(411,-88,cs),
(411,-67,o),
(396,-51,o),
(372,-51,cs),
(341,-51,o),
(324,-78,o),
(324,-117,cs),
(324,-184,o),
(372,-226,o),
(452,-226,cs)
);
}
);
width = 718;
},
{
layerId = m002;
width = 600;
}
);
unicode = 330;
},
{
color = 11;
export = 0;
glyphname = O;
lastChange = "2025-06-27 05:07:40 +0000";
layers = (
{
layerId = "5DAEE4C7-75B6-49C7-8B62-3AAE62732CCA";
name = "Light Condensed";
shapes = (
{
closed = 1;
nodes = (
(531,-11,o),
(635,106,o),
(635,315,cs),
(635,525,o),
(532,641,o),
(347,641,cs),
(161,641,o),
(57,524,o),
(57,315,cs),
(57,105,o),
(161,-11,o),
(346,-11,cs)
);
},
{
closed = 1;
nodes = (
(205,48,o),
(135,134,o),
(135,314,cs),
(135,495,o),
(206,582,o),
(350,582,cs),
(492,582,o),
(558,498,o),
(558,314,cs),
(558,131,o),
(492,48,o),
(350,48,cs)
);
}
);
width = 693;
},
{
layerId = m002;
width = 600;
}
);
unicode = 79;
},
{
color = 11;
export = 0;
glyphname = Oslash;
lastChange = "2025-06-27 05:07:40 +0000";
layers = (
{
layerId = "5DAEE4C7-75B6-49C7-8B62-3AAE62732CCA";
name = "Light Condensed";
shapes = (
{
closed = 1;
nodes = (
(56,-33,l),
(125,-33,l),
(637,663,l),
(569,663,l)
);
},
{
alignment = -1;
ref = O;
}
);
width = 693;
},
{
layerId = m002;
width = 600;
}
);
unicode = 216;
},
{
color = 11;
export = 0;
glyphname = OE;
lastChange = "2025-06-27 05:07:40 +0000";
layers = (
{
layerId = "5DAEE4C7-75B6-49C7-8B62-3AAE62732CCA";
name = "Light Condensed";
shapes = (
{
closed = 1;
nodes = (
(923,0,l),
(923,228,l),
(866,228,l),
(866,80,o),
(853,50,o),
(798,50,cs),
(539,50,l),
(539,295,l),
(669,295,ls),
(708,295,o),
(715,278,o),
(716,186,c),
(764,186,l),
(764,447,l),
(716,447,l),
(715,357,o),
(708,341,o),
(669,341,cs),
(539,341,l),
(539,580,l),
(797,580,ls),
(851,580,o),
(866,546,o),
(866,404,c),
(923,404,l),
(923,630,l),
(350,630,ls),
(158,630,o),
(57,522,o),
(57,315,cs),
(57,107,o),
(158,0,o),
(355,0,cs)
);
},
{
closed = 1;
nodes = (
(204,53,o),
(135,128,o),
(135,315,cs),
(135,500,o),
(203,578,o),
(370,578,cs),
(436,578,o),
(466,566,o),
(466,540,cs),
(466,89,ls),
(466,62,o),
(446,53,o),
(377,53,cs)
);
}
);
width = 991;
},
{
layerId = m002;
width = 600;
}
);
unicode = 338;
},
{
color = 11;
export = 0;
glyphname = P;
lastChange = "2025-06-27 05:07:40 +0000";
layers = (
{
layerId = "5DAEE4C7-75B6-49C7-8B62-3AAE62732CCA";
name = "Light Condensed";
shapes = (
{
closed = 1;
nodes = (
(83,50,ls),
(103,50,o),
(113,61,o),
(113,85,cs),
(113,546,ls),
(113,571,o),
(103,580,o),
(78,580,cs),
(18,580,l),
(18,630,l),
(360,630,ls),
(501,630,o),
(575,565,o),
(575,444,cs),
(575,318,o),
(494,251,o),
(349,251,c),
(173,251,l),
(173,308,l),
(345,308,ls),
(452,308,o),
(502,351,o),
(502,444,cs),
(502,533,o),
(454,575,o),
(355,575,cs),
(186,575,l),
(186,85,ls),
(186,60,o),
(196,50,o),
(217,50,cs),
(299,50,l),
(299,0,l),
(19,0,l),
(19,50,l)
);
}
);
width = 603;
},
{
layerId = m002;
width = 600;
}
);
metricLeft = H;
unicode = 80;
},
{
color = 11;
export = 0;
glyphname = Thorn;
lastChange = "2025-06-27 05:07:40 +0000";
layers = (
{
layerId = "5DAEE4C7-75B6-49C7-8B62-3AAE62732CCA";
name = "Light Condensed";
shapes = (
{
closed = 1;
nodes = (
(512,132,o),
(593,198,o),
(593,319,cs),
(593,434,o),
(519,499,o),
(377,499,cs),
(186,499,l),
(186,545,ls),
(186,566,o),
(193,579,o),
(213,579,cs),
(289,579,l),
(289,629,l),
(23,629,l),
(23,579,l),
(82,579,ls),
(106,579,o),
(113,566,o),
(113,545,cs),
(113,85,ls),
(113,61,o),
(103,50,o),
(83,50,cs),
(24,50,l),
(24,0,l),
(289,0,l),
(289,50,l),
(217,50,ls),
(196,50,o),
(186,60,o),
(186,85,cs),
(186,132,l),
(366,132,ls)
);
},
{
closed = 1;
nodes = (
(186,188,l),
(186,444,l),
(372,444,ls),
(471,444,o),
(519,402,o),
(519,318,cs),
(519,231,o),
(469,188,o),
(362,188,cs)
);
}
);
width = 621;
},
{
layerId = m002;
width = 600;
}
);
unicode = 222;
},
{
color = 11;
export = 0;
glyphname = Q;
lastChange = "2025-06-27 05:07:40 +0000";
layers = (
{
layerId = "5DAEE4C7-75B6-49C7-8B62-3AAE62732CCA";
name = "Light Condensed";
shapes = (
{
closed = 1;
nodes = (
(526,-11,o),
(635,100,o),
(635,316,cs),
(636,533,o),
(525,640,o),
(347,640,cs),
(169,640,o),
(57,533,o),
(57,315,cs),
(57,97,o),
(167,-11,o),
(346,-11,cs)
);
},
{
closed = 1;
nodes = (
(218,48,o),
(135,120,o),
(135,314,cs),
(135,505,o),
(216,581,o),
(350,581,cs),
(484,581,o),
(558,506,o),
(558,314,cs),
(558,120,o),
(482,48,o),
(350,48,cs)
);
},
{
closed = 1;
nodes = (
(475,156,o),
(387,-110,o),
(577,-110,cs),
(667,-110,o),
(701,-50,o),
(701,101,c),
(646,101,l),
(647,-6,o),
(628,-45,o),
(578,-45,cs),
(453,-45,o),
(531,211,o),
(334,211,cs),
(254,211,o),
(206,166,o),
(206,110,cs),
(206,78,o),
(221,54,o),
(248,54,cs),
(256,54,o),
(266,56,o),
(272,59,c),
(256,65,o),
(246,79,o),
(246,97,cs),
(246,131,o),
(275,156,o),
(322,156,cs)
);
}
);
width = 710;
},
{
layerId = m002;
width = 600;
}
);
unicode = 81;
},
{
color = 11;
export = 0;
glyphname = R;
lastChange = "2025-06-27 05:07:40 +0000";
layers = (
{
layerId = "5DAEE4C7-75B6-49C7-8B62-3AAE62732CCA";
name = "Light Condensed";
shapes = (
{
closed = 1;
nodes = (
(83,50,ls),
(103,50,o),
(113,61,o),
(113,85,cs),
(113,546,ls),
(113,571,o),
(103,580,o),
(78,580,cs),
(18,580,l),
(18,630,l),
(354,630,ls),
(491,630,o),
(566,566,o),
(566,461,cs),
(566,353,o),
(485,283,o),
(357,283,cs),
(173,283,l),
(173,339,l),
(341,339,ls),
(443,339,o),
(492,381,o),
(492,460,cs),
(492,536,o),
(444,575,o),
(345,575,cs),
(186,575,l),
(186,85,ls),
(186,60,o),
(196,50,o),
(217,50,cs),
(293,50,l),
(293,0,l),
(19,0,l),
(19,50,l)
);
},
{
closed = 1;
nodes = (
(478,-10,o),
(440,28,o),
(440,104,cs),
(440,172,ls),
(440,252,o),
(409,283,o),
(332,283,c),
(342,312,l),
(406,312,o),
(436,309,o),
(452,299,c),
(452,294,l),
(495,280,o),
(513,236,o),
(513,179,cs),
(513,115,ls),
(513,67,o),
(526,47,o),
(549,47,cs),
(572,47,o),
(585,66,o),
(585,114,cs),
(585,171,l),
(634,171,l),
(634,104,ls),
(634,26,o),
(602,-10,o),
(542,-10,cs)
);
}
);
width = 649;
},
{
layerId = m002;
width = 600;
}
);
metricLeft = H;
unicode = 82;
},
{
color = 11;
export = 0;
glyphname = S;
lastChange = "2025-06-27 05:07:40 +0000";
layers = (
{
layerId = "5DAEE4C7-75B6-49C7-8B62-3AAE62732CCA";
name = "Light Condensed";
shapes = (
{
closed = 1;
nodes = (
(170,44,o),
(102,111,o),
(102,232,c),
(51,232,l),
(51,0,l),
(102,0,l),
(109,61,l),
(112,61,l),
(150,16,o),
(219,-10,o),
(300,-10,cs),
(431,-10,o),
(514,55,o),
(514,160,cs),
(514,385,o),
(128,322,o),
(128,482,cs),
(128,543,o),
(184,584,o),
(277,584,cs),
(388,584,o),
(443,526,o),
(443,411,c),
(495,411,l),
(495,630,l),
(447,630,l),
(439,576,l),
(436,576,l),
(398,616,o),
(338,638,o),
(266,638,cs),
(139,638,o),
(58,574,o),
(58,474,cs),
(58,257,o),
(445,325,o),
(445,153,cs),
(445,86,o),
(388,44,o),
(292,44,cs)
);
}
);
width = 563;
},
{
layerId = m002;
width = 600;
}
);
unicode = 83;
},
{
color = 11;
export = 0;
glyphname = T;
kernLeft = T;
kernRight = T;
lastChange = "2025-06-27 05:07:41 +0000";
layers = (
{
layerId = "5DAEE4C7-75B6-49C7-8B62-3AAE62732CCA";
name = "Light Condensed";
shapes = (
{
closed = 1;
nodes = (
(146,0,l),
(446,0,l),
(446,50,l),
(362,50,ls),
(341,50,o),
(334,62,o),
(334,85,cs),
(334,580,l),
(454,580,ls),
(509,580,o),
(520,544,o),
(520,368,c),
(574,368,l),
(574,630,l),
(21,630,l),
(21,368,l),
(75,368,l),
(75,544,o),
(86,580,o),
(141,580,cs),
(261,580,l),
(261,86,ls),
(261,62,o),
(253,50,o),
(230,50,cs),
(146,50,l)
);
}
);
width = 595;
},
{
layerId = m002;
width = 600;
},
{
layerId = m003;
width = 600;
},
{
layerId = m004;
width = 600;
},
{
layerId = "E4C98B95-3FAD-4F96-AF6D-989EFF3D42C0";
width = 600;
},
{
layerId = m007;
width = 600;
},
{
layerId = m006;
width = 600;
},
{
layerId = m008;
width = 600;
},
{
layerId = m009;
width = 600;
},
{
layerId = m010;
width = 600;
},
{
layerId = m011;
width = 600;
},
{
layerId = m012;
width = 600;
},
{
layerId = m013;
width = 600;
}
);
unicode = 84;
},
{
color = 11;
export = 0;
glyphname = U;
lastChange = "2025-06-27 05:07:40 +0000";
layers = (
{
layerId = "5DAEE4C7-75B6-49C7-8B62-3AAE62732CCA";
name = "Light Condensed";
shapes = (
{
closed = 1;
nodes = (
(504,-10,o),
(583,60,o),
(583,194,cs),
(583,546,ls),
(583,569,o),
(591,580,o),
(611,580,cs),
(678,580,l),
(678,630,l),
(434,630,l),
(434,580,l),
(499,580,ls),
(517,580,o),
(527,568,o),
(527,546,cs),
(527,191,ls),
(527,96,o),
(473,50,o),
(355,50,cs),
(238,50,o),
(186,95,o),
(186,191,cs),
(186,546,ls),
(186,569,o),
(194,580,o),
(213,580,cs),
(278,580,l),
(278,630,l),
(18,630,l),
(18,580,l),
(85,580,ls),
(104,580,o),
(113,569,o),
(113,544,cs),
(113,194,ls),
(113,59,o),
(195,-10,o),
(349,-10,cs)
);
}
);
width = 696;
},
{
layerId = m002;
width = 600;
}
);
unicode = 85;
},
{
color = 11;
export = 0;
glyphname = V;
lastChange = "2025-06-27 05:07:40 +0000";
layers = (
{
layerId = "5DAEE4C7-75B6-49C7-8B62-3AAE62732CCA";
name = "Light Condensed";
shapes = (
{
closed = 1;
nodes = (
(5,579,l),
(54,579,ls),
(80,579,o),
(91,569,o),
(102,539,cs),
(301,0,l),
(389,0,l),
(586,541,ls),
(597,570,o),
(607,579,o),
(633,579,cs),
(682,579,l),
(682,630,l),
(435,630,l),
(435,579,l),
(501,579,ls),
(522,579,o),
(532,572,o),
(532,558,cs),
(532,552,o),
(530,545,o),
(528,538,cs),
(356,67,l),
(352,67,l),
(182,539,ls),
(180,544,o),
(179,551,o),
(179,556,cs),
(179,570,o),
(188,579,o),
(209,579,cs),
(274,579,l),
(274,630,l),
(5,630,l)
);
}
);
width = 686;
},
{
layerId = m002;
width = 600;
}
);
unicode = 86;
},
{
color = 11;
export = 0;
glyphname = W;
lastChange = "2025-06-27 05:07:40 +0000";
layers = (
{
layerId = "5DAEE4C7-75B6-49C7-8B62-3AAE62732CCA";
name = "Light Condensed";
shapes = (
{
closed = 1;
nodes = (
(10,580,l),
(63,580,ls),
(89,580,o),
(102,569,o),
(110,539,cs),
(265,0,l),
(356,0,l),
(516,541,l),
(459,542,l),
(323,72,l),
(319,72,l),
(189,539,ls),
(187,545,o),
(187,552,o),
(187,556,cs),
(187,572,o),
(198,580,o),
(217,580,cs),
(276,580,l),
(276,630,l),
(10,630,l)
);
},
{
closed = 1;
nodes = (
(357,580,l),
(408,580,ls),
(433,580,o),
(446,569,o),
(454,539,cs),
(484,429,l),
(490,429,l),
(615,0,l),
(705,0,l),
(862,541,ls),
(871,572,o),
(880,580,o),
(905,580,cs),
(957,580,l),
(957,630,l),
(712,630,l),
(712,580,l),
(775,580,ls),
(796,580,o),
(804,571,o),
(804,556,cs),
(804,551,o),
(804,546,o),
(802,539,cs),
(672,72,l),
(668,72,l),
(533,539,ls),
(531,545,o),
(530,552,o),
(530,556,cs),
(530,572,o),
(541,580,o),
(561,580,cs),
(626,580,l),
(626,630,l),
(357,630,l)
);
}
);
width = 967;
},
{
layerId = m002;
width = 600;
}
);
unicode = 87;
},
{
color = 11;
export = 0;
glyphname = X;
lastChange = "2025-06-27 05:07:40 +0000";
layers = (
{
layerId = "5DAEE4C7-75B6-49C7-8B62-3AAE62732CCA";
name = "Light Condensed";
shapes = (
{
closed = 1;
nodes = (
(432,0,l),
(689,0,l),
(689,50,l),
(642,50,ls),
(626,50,o),
(615,56,o),
(604,69,cs),
(219,546,ls),
(214,552,o),
(211,559,o),
(211,565,cs),
(211,574,o),
(217,580,o),
(229,580,cs),
(289,580,l),
(289,630,l),
(26,630,l),
(26,580,l),
(67,580,ls),
(88,580,o),
(99,576,o),
(112,560,cs),
(501,80,ls),
(505,75,o),
(508,69,o),
(508,64,cs),
(508,56,o),
(501,50,o),
(488,50,cs),
(432,50,l)
);
},
{
closed = 1;
nodes = (
(19,0,l),
(264,0,l),
(264,50,l),
(198,50,ls),
(184,50,o),
(177,55,o),
(177,65,cs),
(177,69,o),
(179,73,o),
(183,79,cs),
(356,293,l),
(392,316,l),
(597,558,ls),
(611,575,o),
(620,580,o),
(643,580,cs),
(682,580,l),
(682,630,l),
(436,630,l),
(436,580,l),
(502,580,ls),
(515,580,o),
(521,574,o),
(521,565,cs),
(521,560,o),
(519,555,o),
(514,549,cs),
(354,354,l),
(320,340,l),
(106,74,ls),
(92,57,o),
(82,50,o),
(63,50,cs),
(19,50,l)
);
}
);
width = 707;
},
{
layerId = m002;
width = 600;
}
);
unicode = 88;
},
{
color = 11;
export = 0;
glyphname = Y;
lastChange = "2025-06-27 05:07:40 +0000";
layers = (
{
layerId = "5DAEE4C7-75B6-49C7-8B62-3AAE62732CCA";
name = "Light Condensed";
shapes = (
{
closed = 1;
nodes = (
(7,580,l),
(39,580,ls),
(68,580,o),
(83,572,o),
(102,541,cs),
(308,210,l),
(366,220,l),
(560,544,ls),
(577,573,o),
(587,580,o),
(615,580,cs),
(649,580,l),
(649,630,l),
(404,630,l),
(404,580,l),
(474,580,ls),
(492,580,o),
(503,573,o),
(503,560,cs),
(503,555,o),
(500,546,o),
(496,539,cs),
(344,281,l),
(340,281,l),
(188,539,ls),
(183,547,o),
(181,553,o),
(181,559,cs),
(181,571,o),
(190,580,o),
(209,580,cs),
(281,580,l),
(281,630,l),
(7,630,l)
);
},
{
closed = 1;
nodes = (
(207,0,l),
(471,0,l),
(471,50,l),
(403,50,ls),
(384,50,o),
(375,63,o),
(375,84,cs),
(375,276,l),
(303,276,l),
(303,84,ls),
(303,63,o),
(295,50,o),
(272,50,cs),
(207,50,l)
);
}
);
width = 656;
},
{
layerId = m002;
width = 600;
}
);
unicode = 89;
},
{
color = 11;
export = 0;
glyphname = Z;
lastChange = "2025-06-27 05:07:40 +0000";
layers = (
{
layerId = "5DAEE4C7-75B6-49C7-8B62-3AAE62732CCA";
name = "Light Condensed";
shapes = (
{
closed = 1;
nodes = (
(523,261,l),
(469,261,l),
(469,72,o),
(443,50,o),
(378,50,cs),
(124,50,l),
(512,576,l),
(512,630,l),
(54,630,l),
(54,368,l),
(108,368,l),
(108,555,o),
(127,580,o),
(191,580,cs),
(427,580,l),
(37,52,l),
(37,0,l),
(523,0,l)
);
}
);
width = 560;
},
{
layerId = m002;
width = 600;
}
);
unicode = 90;
},
{
color = 11;
export = 0;
glyphname = a;
lastChange = "2025-06-27 05:07:40 +0000";
layers = (
{
layerId = "5DAEE4C7-75B6-49C7-8B62-3AAE62732CCA";
name = "Light Condensed";
shapes = (
{
closed = 1;
nodes = (
(244,-10,o),
(293,18,o),
(325,73,c),
(329,73,l),
(332,20,o),
(364,-10,o),
(416,-10,cs),
(478,-10,o),
(506,33,o),
(506,132,cs),
(506,150,o),
(505,154,o),
(505,162,c),
(466,162,l),
(466,155,o),
(467,151,o),
(467,134,cs),
(467,69,o),
(457,44,o),
(425,44,cs),
(401,44,o),
(389,60,o),
(389,96,cs),
(389,343,ls),
(389,415,o),
(327,460,o),
(230,460,cs),
(127,460,o),
(57,408,o),
(57,334,cs),
(57,295,o),
(76,271,o),
(107,271,cs),
(132,271,o),
(148,287,o),
(148,308,cs),
(148,337,o),
(124,339,o),
(124,361,cs),
(124,389,o),
(172,413,o),
(227,413,cs),
(287,413,o),
(321,388,o),
(321,340,cs),
(321,300,ls),
(321,278,o),
(314,269,o),
(297,266,cs),
(193,246,ls),
(86,225,o),
(38,184,o),
(38,108,cs),
(38,32,o),
(87,-10,o),
(175,-10,cs)
);
},
{
closed = 1;
nodes = (
(139,42,o),
(110,66,o),
(110,113,cs),
(110,168,o),
(144,197,o),
(225,212,cs),
(321,228,l),
(321,186,ls),
(321,102,o),
(264,42,o),
(194,42,cs)
);
}
);
width = 504;
},
{
layerId = m002;
width = 600;
},
{
layerId = m003;
width = 600;
},
{
layerId = m004;
width = 600;
},
{
layerId = "E4C98B95-3FAD-4F96-AF6D-989EFF3D42C0";
width = 600;
},
{
layerId = m007;
width = 600;
},
{
layerId = m006;
width = 600;
},
{
layerId = m008;
width = 600;
},
{
layerId = m009;
width = 600;
},
{
layerId = m010;
width = 600;
},
{
layerId = m011;
width = 600;
},
{
layerId = m012;
width = 600;
},
{
layerId = m013;
width = 600;
}
);
unicode = 97;
},
{
color = 11;
export = 0;
glyphname = ae;
lastChange = "2025-06-27 05:07:40 +0000";
layers = (
{
layerId = "5DAEE4C7-75B6-49C7-8B62-3AAE62732CCA";
name = "Light Condensed";
shapes = (
{
closed = 1;
nodes = (
(254,-10,o),
(306,28,o),
(341,98,c),
(345,98,l),
(389,96,l),
(389,343,ls),
(389,415,o),
(328,460,o),
(231,460,cs),
(128,460,o),
(57,408,o),
(57,334,cs),
(57,296,o),
(76,271,o),
(107,271,cs),
(132,271,o),
(148,287,o),
(148,309,cs),
(148,336,o),
(124,339,o),
(124,360,cs),
(124,389,o),
(171,413,o),
(228,413,cs),
(287,413,o),
(321,387,o),
(321,340,cs),
(321,300,ls),
(321,278,o),
(314,269,o),
(297,266,cs),
(193,246,ls),
(87,226,o),
(38,184,o),
(38,108,cs),
(38,32,o),
(86,-10,o),
(174,-10,cs)
);
},
{
closed = 1;
nodes = (
(139,42,o),
(110,68,o),
(110,115,cs),
(110,167,o),
(146,198,o),
(225,212,cs),
(321,228,l),
(321,186,ls),
(321,102,o),
(266,42,o),
(189,42,cs)
);
},
{
closed = 1;
nodes = (
(631,-10,o),
(702,61,o),
(702,175,c),
(643,175,l),
(641,89,o),
(597,41,o),
(519,41,cs),
(436,41,o),
(394,94,o),
(392,215,c),
(701,215,l),
(703,238,o),
(703,242,o),
(703,253,cs),
(703,382,o),
(633,460,o),
(518,460,cs),
(396,460,o),
(321,373,o),
(321,224,cs),
(321,77,o),
(394,-10,o),
(518,-10,cs)
);
},
{
closed = 1;
nodes = (
(393,258,l),
(399,361,o),
(442,409,o),
(518,409,cs),
(596,409,o),
(635,358,o),
(636,258,c)
);
}
);
width = 744;
},
{
layerId = m002;
width = 600;
}
);
unicode = 230;
},
{
color = 11;
export = 0;
glyphname = b;
lastChange = "2025-06-27 05:07:40 +0000";
layers = (
{
layerId = "5DAEE4C7-75B6-49C7-8B62-3AAE62732CCA";
name = "Light Condensed";
shapes = (
{
closed = 1;
nodes = (
(181,44,o),
(135,110,o),
(135,226,cs),
(135,344,o),
(179,406,o),
(262,406,cs),
(341,406,o),
(378,348,o),
(378,225,cs),
(378,103,o),
(341,44,o),
(262,44,cs)
);
},
{
closed = 1;
nodes = (
(116,0,l),
(131,68,l),
(135,68,l),
(163,17,o),
(213,-10,o),
(278,-10,cs),
(391,-10,o),
(454,73,o),
(454,226,cs),
(454,380,o),
(394,460,o),
(278,460,cs),
(214,460,o),
(168,435,o),
(138,382,c),
(134,382,l),
(134,665,l),
(-18,665,l),
(-18,624,l),
(39,624,ls),
(58,624,o),
(66,615,o),
(66,592,cs),
(66,0,l)
);
}
);
width = 494;
},
{
layerId = m002;
width = 600;
},
{
layerId = m003;
width = 600;
},
{
layerId = m004;
width = 600;
},
{
layerId = "E4C98B95-3FAD-4F96-AF6D-989EFF3D42C0";
width = 600;
},
{
layerId = m007;
width = 600;
},
{
layerId = m006;
width = 600;
},
{
layerId = m008;
width = 600;
},
{
layerId = m009;
width = 600;
},
{
layerId = m010;
width = 600;
},
{
layerId = m011;
width = 600;
},
{
layerId = m012;
width = 600;
},
{
layerId = m013;
width = 600;
}
);
metricRight = "=o-2";
unicode = 98;
},
{
color = 11;
export = 0;
glyphname = c;
lastChange = "2025-06-27 05:07:40 +0000";
layers = (
{
layerId = "5DAEE4C7-75B6-49C7-8B62-3AAE62732CCA";
name = "Light Condensed";
shapes = (
{
closed = 1;
nodes = (
(154,42,o),
(114,101,o),
(114,226,cs),
(114,352,o),
(153,408,o),
(242,408,cs),
(296,408,o),
(332,386,o),
(332,352,cs),
(332,328,o),
(313,322,o),
(313,296,cs),
(313,274,o),
(328,258,o),
(353,258,cs),
(383,258,o),
(402,284,o),
(402,327,cs),
(402,409,o),
(336,460,o),
(240,460,cs),
(115,460,o),
(43,375,o),
(43,222,cs),
(43,74,o),
(111,-10,o),
(232,-10,cs),
(343,-10,o),
(406,59,o),
(406,181,c),
(353,181,l),
(348,83,o),
(311,42,o),
(239,42,cs)
);
}
);
width = 445;
},
{
layerId = m002;
width = 600;
}
);
metricLeft = o;
metricRight = "=o-3";
unicode = 99;
},
{
color = 11;
export = 0;
glyphname = d;
lastChange = "2025-06-27 05:07:40 +0000";
layers = (
{
layerId = "5DAEE4C7-75B6-49C7-8B62-3AAE62732CCA";
name = "Light Condensed";
shapes = (
{
closed = 1;
nodes = (
(281,-10,o),
(325,13,o),
(358,72,c),
(362,72,l),
(362,0,l),
(512,0,l),
(512,42,l),
(453,42,ls),
(434,42,o),
(429,54,o),
(429,73,cs),
(429,665,l),
(261,665,l),
(261,623,l),
(329,623,ls),
(351,623,o),
(361,611,o),
(361,587,cs),
(361,387,l),
(357,387,l),
(324,437,o),
(280,460,o),
(217,460,cs),
(106,460,o),
(41,381,o),
(41,224,cs),
(41,63,o),
(110,-10,o),
(217,-10,cs)
);
},
{
closed = 1;
nodes = (
(154,44,o),
(117,99,o),
(117,222,cs),
(117,351,o),
(158,406,o),
(236,406,cs),
(300,406,o),
(360,364,o),
(360,225,cs),
(360,98,o),
(308,44,o),
(234,44,cs)
);
}
);
width = 515;
},
{
layerId = m002;
width = 600;
}
);
metricLeft = "=o-2";
unicode = 100;
},
{
color = 11;
export = 0;
glyphname = eth;
lastChange = "2025-06-27 05:07:40 +0000";
layers = (
{
layerId = "5DAEE4C7-75B6-49C7-8B62-3AAE62732CCA";
name = "Light Condensed";
shapes = (
{
closed = 1;
nodes = (
(370,-10,o),
(447,79,o),
(447,236,cs),
(447,370,o),
(369,460,o),
(244,460,cs),
(120,460,o),
(43,370,o),
(43,224,cs),
(43,79,o),
(120,-10,o),
(245,-10,cs)
);
},
{
closed = 1;
nodes = (
(159,44,o),
(116,101,o),
(116,224,cs),
(116,349,o),
(159,406,o),
(244,406,cs),
(330,406,o),
(374,348,o),
(374,233,cs),
(374,101,o),
(330,44,o),
(244,44,cs)
);
},
{
closed = 1;
nodes = (
(447,236,l),
(447,443,o),
(357,572,o),
(136,664,c),
(102,629,l),
(295,549,o),
(374,424,o),
(374,236,c)
);
},
{
closed = 1;
nodes = (
(123,495,l),
(407,602,l),
(388,637,l),
(104,531,l)
);
}
);
width = 489;
},
{
layerId = m002;
width = 600;
}
);
unicode = 240;
},
{
color = 11;
export = 0;
glyphname = e;
lastChange = "2025-06-27 05:07:40 +0000";
layers = (
{
layerId = "5DAEE4C7-75B6-49C7-8B62-3AAE62732CCA";
name = "Light Condensed";
shapes = (
{
closed = 1;
nodes = (
(353,-10,o),
(425,60,o),
(425,175,c),
(367,175,l),
(365,90,o),
(323,41,o),
(242,41,cs),
(161,41,o),
(116,91,o),
(114,215,c),
(423,215,l),
(424,226,o),
(425,237,o),
(425,254,cs),
(425,381,o),
(356,460,o),
(240,460,cs),
(120,460,o),
(43,374,o),
(43,224,cs),
(43,77,o),
(116,-10,o),
(241,-10,cs)
);
},
{
closed = 1;
nodes = (
(115,258,l),
(121,363,o),
(166,409,o),
(241,409,cs),
(318,409,o),
(357,359,o),
(358,258,c)
);
}
);
width = 468;
},
{
layerId = m002;
width = 600;
},
{
layerId = m003;
width = 600;
},
{
layerId = m004;
width = 600;
},
{
layerId = "E4C98B95-3FAD-4F96-AF6D-989EFF3D42C0";
width = 600;
},
{
layerId = m007;
width = 600;
},
{
layerId = m006;
width = 600;
},
{
layerId = m008;
width = 600;
},
{
layerId = m009;
width = 600;
},
{
layerId = m010;
width = 600;
},
{
layerId = m011;
width = 600;
},
{
layerId = m012;
width = 600;
},
{
layerId = m013;
width = 600;
}
);
metricLeft = o;
metricRight = o;
unicode = 101;
},
{
color = 11;
export = 0;
glyphname = schwa;
lastChange = "2025-06-27 05:07:40 +0000";
layers = (
{
layerId = "5DAEE4C7-75B6-49C7-8B62-3AAE62732CCA";
name = "Light Condensed";
shapes = (
{
closed = 1;
nodes = (
(116,460,o),
(41,388,o),
(41,293,c),
(101,293,l),
(103,361,o),
(151,409,o),
(227,409,cs),
(308,409,o),
(350,355,o),
(352,235,c),
(43,235,l),
(41,217,o),
(41,209,o),
(41,197,cs),
(41,69,o),
(110,-10,o),
(226,-10,cs),
(349,-10,o),
(423,78,o),
(423,226,cs),
(423,372,o),
(351,460,o),
(227,460,cs)
);
},
{
closed = 1;
nodes = (
(351,192,l),
(345,89,o),
(302,41,o),
(226,41,cs),
(149,41,o),
(109,91,o),
(108,192,c)
);
}
);
width = 466;
},
{
layerId = m002;
width = 600;
}
);
unicode = 601;
},
{
color = 11;
export = 0;
glyphname = f;
lastChange = "2025-06-27 05:07:40 +0000";
layers = (
{
layerId = "5DAEE4C7-75B6-49C7-8B62-3AAE62732CCA";
name = "Light Condensed";
shapes = (
{
closed = 1;
nodes = (
(287,0,l),
(287,42,l),
(219,42,ls),
(197,42,o),
(187,53,o),
(187,72,cs),
(187,499,ls),
(187,588,o),
(216,630,o),
(275,630,cs),
(311,630,o),
(334,615,o),
(334,591,cs),
(334,568,o),
(313,562,o),
(313,539,cs),
(313,517,o),
(330,503,o),
(353,503,cs),
(381,503,o),
(399,527,o),
(399,568,cs),
(399,634,o),
(352,675,o),
(272,675,cs),
(176,675,o),
(121,614,o),
(121,492,cs),
(121,74,ls),
(121,53,o),
(113,42,o),
(94,42,cs),
(26,42,l),
(26,0,l)
);
},
{
closed = 1;
nodes = (
(290,405,l),
(290,450,l),
(25,450,l),
(25,405,l)
);
}
);
width = 321;
},
{
layerId = m002;
width = 600;
}
);
unicode = 102;
},
{
color = 11;
export = 0;
glyphname = g;
lastChange = "2025-06-27 05:07:40 +0000";
layers = (
{
layerId = "5DAEE4C7-75B6-49C7-8B62-3AAE62732CCA";
name = "Light Condensed";
shapes = (
{
closed = 1;
nodes = (
(331,131,o),
(393,191,o),
(393,295,cs),
(393,399,o),
(330,460,o),
(220,460,cs),
(110,460,o),
(48,400,o),
(48,296,cs),
(48,191,o),
(109,131,o),
(220,130,cs)
);
},
{
closed = 1;
nodes = (
(149,182,o),
(118,216,o),
(118,295,cs),
(118,375,o),
(148,409,o),
(219,409,cs),
(292,409,o),
(324,374,o),
(324,295,cs),
(324,216,o),
(291,182,o),
(220,182,cs)
);
},
{
closed = 1;
nodes = (
(418,445,o),
(430,436,o),
(430,422,cs),
(430,402,o),
(412,397,o),
(412,374,cs),
(412,354,o),
(425,343,o),
(446,343,cs),
(472,343,o),
(488,362,o),
(488,398,cs),
(488,450,o),
(459,486,o),
(403,486,cs),
(353,486,o),
(316,450,o),
(316,409,c),
(349,384,l),
(349,417,o),
(372,445,o),
(401,445,cs)
);
},
{
closed = 1;
nodes = (
(340,-2,o),
(368,-31,o),
(368,-83,cs),
(368,-144,o),
(322,-173,o),
(226,-173,cs),
(134,-173,o),
(88,-146,o),
(88,-90,cs),
(88,-37,o),
(123,-2,o),
(174,-2,cs),
(290,-2,ls)
);
},
{
closed = 1;
nodes = (
(77,164,o),
(45,129,o),
(45,85,cs),
(45,55,o),
(65,22,o),
(101,16,c),
(101,12,l),
(58,3,o),
(25,-41,o),
(25,-98,cs),
(25,-177,o),
(90,-224,o),
(223,-224,cs),
(360,-224,o),
(435,-171,o),
(435,-75,cs),
(435,7,o),
(385,56,o),
(301,56,cs),
(156,56,ls),
(122,56,o),
(102,67,o),
(102,90,cs),
(102,119,o),
(129,134,o),
(186,136,c),
(135,171,l)
);
}
);
width = 465;
},
{
layerId = m002;
width = 600;
}
);
unicode = 103;
},
{
color = 11;
export = 0;
glyphname = h;
lastChange = "2025-06-27 05:07:40 +0000";
layers = (
{
layerId = "5DAEE4C7-75B6-49C7-8B62-3AAE62732CCA";
name = "Light Condensed";
shapes = (
{
closed = 1;
nodes = (
(19,0,l),
(249,0,l),
(249,42,l),
(193,42,ls),
(177,42,o),
(171,52,o),
(171,73,cs),
(171,238,ls),
(171,340,o),
(218,403,o),
(298,403,cs),
(360,403,o),
(391,366,o),
(391,296,cs),
(391,72,ls),
(391,51,o),
(384,42,o),
(367,42,cs),
(312,42,l),
(312,0,l),
(540,0,l),
(540,42,l),
(485,42,ls),
(466,42,o),
(459,50,o),
(459,73,cs),
(459,307,ls),
(459,407,o),
(410,460,o),
(319,460,cs),
(252,460,o),
(203,432,o),
(174,376,c),
(170,376,l),
(170,665,l),
(19,665,l),
(19,623,l),
(71,623,ls),
(94,623,o),
(103,613,o),
(103,585,cs),
(103,73,ls),
(103,52,o),
(94,42,o),
(75,42,cs),
(19,42,l)
);
}
);
width = 562;
},
{
layerId = m002;
width = 600;
}
);
metricRight = n;
unicode = 104;
},
{
color = 11;
export = 0;
glyphname = i;
lastChange = "2025-06-27 05:07:40 +0000";
layers = (
{
layerId = "5DAEE4C7-75B6-49C7-8B62-3AAE62732CCA";
name = "Light Condensed";
shapes = (
{
closed = 1;
nodes = (
(27,0,l),
(261,0,l),
(261,42,l),
(202,42,ls),
(185,42,o),
(179,55,o),
(179,74,cs),
(179,450,l),
(28,450,l),
(28,408,l),
(77,408,ls),
(105,408,o),
(111,395,o),
(111,368,cs),
(111,74,ls),
(111,55,o),
(105,42,o),
(84,42,cs),
(27,42,l)
);
},
{
closed = 1;
nodes = (
(173,554,o),
(191,569,o),
(191,611,cs),
(191,652,o),
(172,668,o),
(142,668,cs),
(113,668,o),
(94,652,o),
(94,611,cs),
(94,569,o),
(113,554,o),
(143,554,cs)
);
}
);
width = 284;
},
{
layerId = m002;
width = 600;
}
);
metricLeft = "=n+2";
metricRight = "=n+1";
unicode = 105;
},
{
color = 11;
export = 0;
glyphname = idotless;
lastChange = "2025-06-27 05:07:40 +0000";
layers = (
{
anchors = (
{
name = bottom;
pos = (141,0);
},
{
name = ogonek;
pos = (253,10);
},
{
name = top;
pos = (141,450);
}
);
layerId = "5DAEE4C7-75B6-49C7-8B62-3AAE62732CCA";
name = "Light Condensed";
shapes = (
{
closed = 1;
nodes = (
(25,0,l),
(259,0,l),
(259,42,l),
(200,42,ls),
(183,42,o),
(177,55,o),
(177,74,cs),
(177,450,l),
(26,450,l),
(26,408,l),
(75,408,ls),
(103,408,o),
(109,395,o),
(109,368,cs),
(109,74,ls),
(109,55,o),
(103,42,o),
(82,42,cs),
(25,42,l)
);
}
);
width = 281;
},
{
layerId = m002;
width = 600;
}
);
unicode = 305;
},
{
color = 11;
export = 0;
glyphname = j;
lastChange = "2025-06-27 05:07:40 +0000";
layers = (
{
layerId = "5DAEE4C7-75B6-49C7-8B62-3AAE62732CCA";
name = "Light Condensed";
shapes = (
{
closed = 1;
nodes = (
(125,-226,o),
(180,-166,o),
(180,-47,cs),
(180,450,l),
(13,450,l),
(13,408,l),
(81,408,ls),
(105,408,o),
(114,397,o),
(114,374,cs),
(114,-54,ls),
(114,-139,o),
(85,-181,o),
(27,-181,cs),
(-9,-181,o),
(-32,-165,o),
(-32,-139,cs),
(-32,-117,o),
(-12,-113,o),
(-12,-88,cs),
(-12,-67,o),
(-27,-51,o),
(-51,-51,cs),
(-81,-51,o),
(-98,-78,o),
(-98,-117,cs),
(-98,-184,o),
(-51,-226,o),
(30,-226,cs)
);
},
{
closed = 1;
nodes = (
(173,554,o),
(191,570,o),
(191,611,cs),
(191,652,o),
(172,668,o),
(143,668,cs),
(115,668,o),
(96,652,o),
(96,611,cs),
(96,570,o),
(115,554,o),
(144,554,cs)
);
}
);
width = 248;
},
{
layerId = m002;
width = 600;
}
);
unicode = 106;
},
{
color = 11;
export = 0;
glyphname = jdotless;
lastChange = "2025-06-27 05:07:40 +0000";
layers = (
{
anchors = (
{
name = bottom;
pos = (123,0);
},
{
name = top;
pos = (123,450);
}
);
layerId = "5DAEE4C7-75B6-49C7-8B62-3AAE62732CCA";
name = "Light Condensed";
shapes = (
{
closed = 1;
nodes = (
(123,-226,o),
(178,-166,o),
(178,-47,cs),
(178,450,l),
(11,450,l),
(11,408,l),
(79,408,ls),
(102,408,o),
(112,397,o),
(112,374,cs),
(112,-54,ls),
(112,-139,o),
(83,-181,o),
(25,-181,cs),
(-11,-181,o),
(-34,-165,o),
(-34,-139,cs),
(-34,-117,o),
(-14,-113,o),
(-14,-88,cs),
(-14,-67,o),
(-29,-51,o),
(-53,-51,cs),
(-84,-51,o),
(-101,-78,o),
(-101,-117,cs),
(-101,-184,o),
(-53,-226,o),
(28,-226,cs)
);
}
);
width = 247;
},
{
layerId = m002;
width = 600;
}
);
unicode = 567;
},
{
color = 11;
export = 0;
glyphname = k;
lastChange = "2025-06-27 05:07:40 +0000";
layers = (
{
layerId = "5DAEE4C7-75B6-49C7-8B62-3AAE62732CCA";
name = "Light Condensed";
shapes = (
{
closed = 1;
nodes = (
(19,665,l),
(19,623,l),
(73,623,ls),
(93,623,o),
(102,613,o),
(102,590,cs),
(102,74,ls),
(102,51,o),
(94,42,o),
(74,42,cs),
(19,42,l),
(19,0,l),
(246,0,l),
(246,42,l),
(194,42,ls),
(177,42,o),
(170,51,o),
(170,72,cs),
(170,665,l)
);
},
{
closed = 1;
nodes = (
(431,391,ls),
(445,403,o),
(458,408,o),
(475,408,cs),
(509,408,l),
(509,450,l),
(289,450,l),
(289,408,l),
(332,408,ls),
(351,408,o),
(356,395,o),
(341,382,cs),
(138,202,l),
(152,148,l)
);
},
{
closed = 1;
nodes = (
(367,68,ls),
(376,53,o),
(368,42,o),
(351,42,cs),
(298,42,l),
(298,0,l),
(527,0,l),
(527,42,l),
(491,42,ls),
(471,42,o),
(458,48,o),
(448,62,cs),
(293,295,l),
(245,250,l)
);
}
);
width = 528;
},
{
layerId = m002;
width = 600;
}
);
metricLeft = h;
unicode = 107;
},
{
color = 11;
export = 0;
glyphname = kgreenlandic;
lastChange = "2025-06-27 05:07:40 +0000";
layers = (
{
layerId = "5DAEE4C7-75B6-49C7-8B62-3AAE62732CCA";
name = "Light Condensed";
shapes = (
{
closed = 1;
nodes = (
(19,450,l),
(19,408,l),
(73,408,ls),
(93,408,o),
(102,397,o),
(102,375,cs),
(102,74,ls),
(102,52,o),
(94,42,o),
(74,42,cs),
(19,42,l),
(19,0,l),
(249,0,l),
(249,42,l),
(194,42,ls),
(177,42,o),
(170,51,o),
(170,72,cs),
(170,450,l)
);
},
{
closed = 1;
nodes = (
(431,391,ls),
(445,403,o),
(459,408,o),
(475,408,cs),
(512,408,l),
(512,450,l),
(286,450,l),
(286,408,l),
(331,408,ls),
(342,408,o),
(349,403,o),
(349,396,cs),
(349,392,o),
(345,387,o),
(341,382,c),
(118,191,l),
(153,154,l)
);
},
{
closed = 1;
nodes = (
(366,67,l),
(368,64,o),
(370,60,o),
(370,57,cs),
(370,48,o),
(363,42,o),
(352,42,cs),
(300,42,l),
(300,0,l),
(530,0,l),
(530,42,l),
(494,42,ls),
(475,42,o),
(461,46,o),
(454,57,cs),
(292,305,l),
(243,249,l)
);
}
);
width = 530;
},
{
layerId = m002;
width = 600;
}
);
unicode = 312;
},
{
color = 11;
export = 0;
glyphname = l;
lastChange = "2025-06-27 05:07:40 +0000";
layers = (
{
layerId = "5DAEE4C7-75B6-49C7-8B62-3AAE62732CCA";
name = "Light Condensed";
shapes = (
{
closed = 1;
nodes = (
(253,0,l),
(253,42,l),
(194,42,ls),
(177,42,o),
(171,55,o),
(171,74,cs),
(171,665,l),
(20,665,l),
(20,624,l),
(69,624,ls),
(97,624,o),
(103,611,o),
(103,584,cs),
(103,74,ls),
(103,55,o),
(97,42,o),
(76,42,cs),
(19,42,l),
(19,0,l)
);
}
);
width = 275;
},
{
layerId = m002;
width = 600;
}
);
metricLeft = h;
metricRight = n;
unicode = 108;
},
{
color = 11;
export = 0;
glyphname = m;
lastChange = "2025-06-27 05:07:40 +0000";
layers = (
{
layerId = "5DAEE4C7-75B6-49C7-8B62-3AAE62732CCA";
name = "Light Condensed";
shapes = (
{
closed = 1;
nodes = (
(254,0,l),
(254,42,l),
(199,42,ls),
(183,42,o),
(177,52,o),
(177,73,cs),
(177,238,ls),
(177,341,o),
(221,403,o),
(296,403,cs),
(353,403,o),
(383,369,o),
(383,306,cs),
(383,72,ls),
(383,51,o),
(376,42,o),
(359,42,cs),
(307,42,l),
(307,0,l),
(527,0,l),
(527,42,l),
(476,42,ls),
(458,42,o),
(451,50,o),
(451,72,cs),
(451,259,ls),
(451,347,o),
(495,403,o),
(568,403,cs),
(627,403,o),
(656,368,o),
(656,296,cs),
(656,72,ls),
(656,51,o),
(650,42,o),
(632,42,cs),
(580,42,l),
(580,0,l),
(804,0,l),
(804,42,l),
(751,42,ls),
(731,42,o),
(724,50,o),
(724,73,cs),
(724,307,ls),
(724,408,o),
(678,460,o),
(589,460,cs),
(524,460,o),
(475,431,o),
(447,375,c),
(443,375,l),
(427,429,o),
(384,460,o),
(318,460,cs),
(253,460,o),
(207,432,o),
(180,376,c),
(176,376,l),
(176,450,l),
(25,450,l),
(25,408,l),
(77,408,ls),
(100,408,o),
(109,398,o),
(109,370,cs),
(109,73,ls),
(109,52,o),
(100,42,o),
(80,42,cs),
(25,42,l),
(25,0,l)
);
}
);
width = 826;
},
{
layerId = m002;
width = 600;
}
);
metricLeft = n;
metricRight = n;
unicode = 109;
},
{
color = 11;
export = 0;
glyphname = n;
lastChange = "2025-06-27 05:07:40 +0000";
layers = (
{
layerId = "5DAEE4C7-75B6-49C7-8B62-3AAE62732CCA";
name = "Light Condensed";
shapes = (
{
closed = 1;
nodes = (
(25,0,l),
(255,0,l),
(255,42,l),
(199,42,ls),
(183,42,o),
(177,52,o),
(177,73,cs),
(177,238,ls),
(177,340,o),
(224,403,o),
(304,403,cs),
(366,403,o),
(397,366,o),
(397,296,cs),
(397,72,ls),
(397,51,o),
(390,42,o),
(373,42,cs),
(318,42,l),
(318,0,l),
(546,0,l),
(546,42,l),
(491,42,ls),
(472,42,o),
(465,50,o),
(465,73,cs),
(465,307,ls),
(465,407,o),
(416,460,o),
(325,460,cs),
(258,460,o),
(208,430,o),
(180,376,c),
(176,376,l),
(176,450,l),
(25,450,l),
(25,408,l),
(77,408,ls),
(100,408,o),
(109,398,o),
(109,370,cs),
(109,73,ls),
(109,52,o),
(100,42,o),
(80,42,cs),
(25,42,l)
);
}
);
width = 568;
},
{
layerId = m002;
width = 600;
},
{
layerId = m003;
width = 600;
},
{
layerId = m004;
width = 600;
},
{
layerId = "E4C98B95-3FAD-4F96-AF6D-989EFF3D42C0";
width = 600;
},
{
layerId = m007;
width = 600;
},
{
layerId = m006;
width = 600;
},
{
layerId = m008;
width = 600;
},
{
layerId = m009;
width = 600;
},
{
layerId = m010;
width = 600;
},
{
layerId = m011;
width = 600;
},
{
layerId = m012;
width = 600;
},
{
layerId = m013;
width = 600;
}
);
unicode = 110;
},
{
color = 11;
export = 0;
glyphname = eng;
lastChange = "2025-06-27 05:07:40 +0000";
layers = (
{
layerId = "5DAEE4C7-75B6-49C7-8B62-3AAE62732CCA";
name = "Light Condensed";
shapes = (
{
closed = 1;
nodes = (
(25,0,l),
(255,0,l),
(255,42,l),
(199,42,ls),
(183,42,o),
(177,52,o),
(177,73,cs),
(177,238,ls),
(177,340,o),
(224,403,o),
(304,403,cs),
(366,403,o),
(397,366,o),
(397,296,cs),
(397,72,l),
(465,72,l),
(465,307,ls),
(465,407,o),
(416,460,o),
(325,460,cs),
(258,460,o),
(208,430,o),
(180,376,c),
(176,376,l),
(176,450,l),
(25,450,l),
(25,408,l),
(77,408,ls),
(100,408,o),
(109,398,o),
(109,370,cs),
(109,73,ls),
(109,52,o),
(100,42,o),
(80,42,cs),
(25,42,l)
);
},
{
closed = 1;
nodes = (
(410,-226,o),
(465,-166,o),
(465,-47,cs),
(465,212,l),
(397,211,l),
(397,-54,ls),
(397,-139,o),
(370,-181,o),
(312,-181,cs),
(276,-181,o),
(252,-165,o),
(252,-139,cs),
(252,-117,o),
(273,-113,o),
(273,-88,cs),
(273,-67,o),
(258,-51,o),
(234,-51,cs),
(203,-51,o),
(186,-78,o),
(186,-117,cs),
(186,-184,o),
(234,-226,o),
(314,-226,cs)
);
}
);
width = 561;
},
{
layerId = m002;
width = 600;
}
);
unicode = 331;
},
{
color = 11;
export = 0;
glyphname = o;
lastChange = "2025-06-27 05:07:40 +0000";
layers = (
{
layerId = "5DAEE4C7-75B6-49C7-8B62-3AAE62732CCA";
name = "Light Condensed";
shapes = (
{
closed = 1;
nodes = (
(366,-10,o),
(447,74,o),
(447,224,cs),
(447,374,o),
(365,460,o),
(245,460,cs),
(124,460,o),
(43,374,o),
(43,224,cs),
(43,75,o),
(124,-10,o),
(244,-10,cs)
);
},
{
closed = 1;
nodes = (
(163,44,o),
(116,96,o),
(116,224,cs),
(116,353,o),
(163,406,o),
(245,406,cs),
(326,406,o),
(374,353,o),
(374,224,cs),
(374,96,o),
(326,44,o),
(245,44,cs)
);
}
);
width = 489;
},
{
layerId = m002;
width = 600;
},
{
layerId = m003;
width = 600;
},
{
layerId = m004;
width = 600;
},
{
layerId = "E4C98B95-3FAD-4F96-AF6D-989EFF3D42C0";
width = 600;
},
{
layerId = m007;
width = 600;
},
{
layerId = m006;
width = 600;
},
{
layerId = m008;
width = 600;
},
{
layerId = m009;
width = 600;
},
{
layerId = m010;
width = 600;
},
{
layerId = m011;
width = 600;
},
{
layerId = m012;
width = 600;
},
{
layerId = m013;
width = 600;
}
);
unicode = 111;
},
{
color = 11;
export = 0;
glyphname = oslash;
lastChange = "2025-06-27 05:07:40 +0000";
layers = (
{
layerId = "5DAEE4C7-75B6-49C7-8B62-3AAE62732CCA";
name = "Light Condensed";
shapes = (
{
closed = 1;
nodes = (
(43,-43,l),
(100,-43,l),
(447,495,l),
(390,495,l)
);
},
{
alignment = -1;
ref = o;
}
);
width = 489;
},
{
layerId = m002;
width = 600;
}
);
unicode = 248;
},
{
color = 11;
export = 0;
glyphname = oe;
lastChange = "2025-06-27 05:07:40 +0000";
layers = (
{
layerId = "5DAEE4C7-75B6-49C7-8B62-3AAE62732CCA";
name = "Light Condensed";
shapes = (
{
closed = 1;
nodes = (
(367,-10,o),
(447,81,o),
(447,224,cs),
(447,368,o),
(366,460,o),
(242,460,cs),
(119,460,o),
(43,369,o),
(43,224,cs),
(43,80,o),
(120,-10,o),
(243,-10,cs)
);
},
{
closed = 1;
nodes = (
(158,44,o),
(116,102,o),
(116,224,cs),
(116,347,o),
(158,406,o),
(244,406,cs),
(331,406,o),
(374,347,o),
(374,224,cs),
(374,102,o),
(331,44,o),
(244,44,cs)
);
},
{
closed = 1;
nodes = (
(686,-10,o),
(757,62,o),
(757,175,c),
(697,175,l),
(696,90,o),
(651,41,o),
(573,41,cs),
(489,41,o),
(448,96,o),
(446,215,c),
(755,215,l),
(757,237,o),
(757,239,o),
(757,253,cs),
(757,381,o),
(687,460,o),
(574,460,cs),
(452,460,o),
(375,369,o),
(375,224,cs),
(375,79,o),
(451,-10,o),
(575,-10,cs)
);
},
{
closed = 1;
nodes = (
(447,258,l),
(453,358,o),
(495,409,o),
(572,409,cs),
(650,409,o),
(690,358,o),
(690,258,c)
);
}
);
width = 798;
},
{
layerId = m002;
width = 600;
}
);
unicode = 339;
},
{
color = 11;
export = 0;
glyphname = p;
lastChange = "2025-06-27 05:07:40 +0000";
layers = (
{
layerId = "5DAEE4C7-75B6-49C7-8B62-3AAE62732CCA";
name = "Light Condensed";
shapes = (
{
closed = 1;
nodes = (
(272,-216,l),
(272,-174,l),
(195,-174,ls),
(178,-174,o),
(172,-162,o),
(172,-142,cs),
(172,62,l),
(176,62,l),
(213,11,o),
(252,-10,o),
(313,-10,cs),
(426,-10,o),
(492,66,o),
(492,225,cs),
(492,382,o),
(426,460,o),
(317,460,cs),
(251,460,o),
(205,434,o),
(175,379,c),
(171,379,l),
(171,450,l),
(20,450,l),
(20,408,l),
(77,408,ls),
(96,408,o),
(104,398,o),
(104,376,cs),
(104,-142,ls),
(104,-162,o),
(97,-174,o),
(77,-174,cs),
(21,-174,l),
(21,-216,l)
);
},
{
closed = 1;
nodes = (
(231,44,o),
(172,89,o),
(172,225,cs),
(172,355,o),
(229,406,o),
(300,406,cs),
(378,406,o),
(416,347,o),
(416,226,cs),
(416,103,o),
(376,44,o),
(298,44,cs)
);
}
);
width = 532;
},
{
layerId = m002;
width = 600;
}
);
metricRight = b;
unicode = 112;
},
{
color = 11;
export = 0;
glyphname = thorn;
lastChange = "2025-06-27 05:07:40 +0000";
layers = (
{
layerId = "5DAEE4C7-75B6-49C7-8B62-3AAE62732CCA";
name = "Light Condensed";
shapes = (
{
closed = 1;
nodes = (
(272,-216,l),
(272,-174,l),
(195,-174,ls),
(178,-174,o),
(172,-162,o),
(172,-142,cs),
(172,65,l),
(176,65,l),
(213,12,o),
(252,-10,o),
(316,-10,cs),
(426,-10,o),
(492,66,o),
(492,224,cs),
(492,382,o),
(426,460,o),
(317,460,cs),
(252,460,o),
(205,433,o),
(176,379,c),
(172,379,l),
(172,665,l),
(20,665,l),
(20,623,l),
(77,623,ls),
(96,623,o),
(104,613,o),
(104,591,cs),
(104,-142,ls),
(104,-162,o),
(97,-174,o),
(77,-174,cs),
(21,-174,l),
(21,-216,l)
);
},
{
closed = 1;
nodes = (
(231,44,o),
(172,89,o),
(172,225,cs),
(172,355,o),
(229,406,o),
(300,406,cs),
(378,406,o),
(416,347,o),
(416,226,cs),
(416,103,o),
(376,44,o),
(299,44,cs)
);
}
);
width = 532;
},
{
layerId = m002;
width = 600;
}
);
unicode = 254;
},
{
color = 11;
export = 0;
glyphname = q;
lastChange = "2025-06-27 05:07:40 +0000";
layers = (
{
layerId = "5DAEE4C7-75B6-49C7-8B62-3AAE62732CCA";
name = "Light Condensed";
shapes = (
{
closed = 1;
nodes = (
(508,-216,l),
(508,-174,l),
(456,-174,ls),
(436,-174,o),
(429,-163,o),
(429,-142,cs),
(429,376,ls),
(429,398,o),
(436,408,o),
(456,408,cs),
(508,408,l),
(508,450,l),
(362,450,l),
(362,383,l),
(358,383,l),
(326,435,o),
(283,460,o),
(220,460,cs),
(108,460,o),
(41,383,o),
(41,225,cs),
(41,67,o),
(108,-10,o),
(218,-10,cs),
(283,-10,o),
(324,18,o),
(357,67,c),
(361,67,l),
(361,-142,ls),
(361,-162,o),
(354,-174,o),
(338,-174,cs),
(263,-174,l),
(263,-216,l)
);
},
{
closed = 1;
nodes = (
(158,44,o),
(117,97,o),
(117,226,cs),
(117,350,o),
(155,406,o),
(233,406,cs),
(306,406,o),
(360,354,o),
(360,226,cs),
(360,92,o),
(301,44,o),
(233,44,cs)
);
}
);
width = 524;
},
{
layerId = m002;
width = 600;
}
);
metricLeft = d;
unicode = 113;
},
{
color = 11;
export = 0;
glyphname = r;
lastChange = "2025-06-27 05:07:40 +0000";
layers = (
{
layerId = "5DAEE4C7-75B6-49C7-8B62-3AAE62732CCA";
name = "Light Condensed";
shapes = (
{
closed = 1;
nodes = (
(243,460,o),
(203,430,o),
(180,377,c),
(176,377,l),
(176,450,l),
(25,450,l),
(25,408,l),
(79,408,ls),
(99,408,o),
(109,397,o),
(109,373,cs),
(109,74,ls),
(109,52,o),
(101,42,o),
(81,42,cs),
(25,42,l),
(25,0,l),
(273,0,l),
(273,42,l),
(204,42,ls),
(184,42,o),
(177,51,o),
(177,74,cs),
(177,237,ls),
(177,331,o),
(222,408,o),
(289,408,cs),
(321,408,o),
(347,391,o),
(347,367,cs),
(347,342,o),
(322,334,o),
(322,307,cs),
(322,285,o),
(339,270,o),
(362,270,cs),
(395,270,o),
(416,301,o),
(416,350,cs),
(416,421,o),
(370,460,o),
(303,460,cs)
);
}
);
width = 428;
},
{
layerId = m002;
width = 600;
}
);
metricLeft = n;
unicode = 114;
},
{
color = 11;
export = 0;
glyphname = s;
lastChange = "2025-06-27 05:07:40 +0000";
layers = (
{
layerId = "5DAEE4C7-75B6-49C7-8B62-3AAE62732CCA";
name = "Light Condensed";
shapes = (
{
closed = 1;
nodes = (
(323,-10,o),
(385,33,o),
(385,109,cs),
(385,267,o),
(120,243,o),
(120,349,cs),
(120,384,o),
(150,416,o),
(204,416,cs),
(267,416,o),
(312,374,o),
(325,277,c),
(368,277,l),
(368,451,l),
(327,451,l),
(322,404,l),
(318,404,l),
(294,441,o),
(252,460,o),
(197,460,cs),
(110,460,o),
(52,411,o),
(52,342,cs),
(52,196,o),
(314,220,o),
(314,106,cs),
(314,65,o),
(282,38,o),
(224,38,cs),
(153,38,o),
(101,81,o),
(85,184,c),
(42,184,l),
(42,-1,l),
(84,-1,l),
(90,57,l),
(94,57,l),
(126,10,o),
(173,-10,o),
(234,-10,cs)
);
}
);
width = 429;
},
{
layerId = m002;
width = 600;
}
);
unicode = 115;
},
{
color = 11;
export = 0;
glyphname = germandbls;
lastChange = "2025-06-27 05:07:40 +0000";
layers = (
{
layerId = "5DAEE4C7-75B6-49C7-8B62-3AAE62732CCA";
name = "Light Condensed";
shapes = (
{
closed = 1;
nodes = (
(238,178,l),
(238,51,o),
(288,-10,o),
(389,-10,cs),
(495,-10,o),
(551,56,o),
(551,181,cs),
(551,293,o),
(507,359,o),
(417,379,c),
(417,383,l),
(489,397,o),
(524,440,o),
(524,516,cs),
(524,620,o),
(457,675,o),
(332,675,cs),
(193,675,o),
(122,609,o),
(122,482,cs),
(122,77,ls),
(122,52,o),
(114,42,o),
(92,42,cs),
(26,42,l),
(26,0,l),
(188,0,l),
(188,484,ls),
(188,582,o),
(232,625,o),
(330,625,cs),
(418,625,o),
(458,591,o),
(458,516,cs),
(458,435,o),
(411,404,o),
(279,404,c),
(279,359,l),
(428,359,o),
(480,312,o),
(480,178,cs),
(480,84,o),
(450,41,o),
(387,41,cs),
(321,41,o),
(288,85,o),
(288,178,c)
);
}
);
width = 592;
},
{
layerId = m002;
width = 600;
}
);
unicode = 223;
},
{
color = 11;
export = 0;
glyphname = t;
lastChange = "2025-06-27 05:07:40 +0000";
layers = (
{
layerId = "5DAEE4C7-75B6-49C7-8B62-3AAE62732CCA";
name = "Light Condensed";
shapes = (
{
closed = 1;
nodes = (
(143,450,l),
(276,450,l),
(276,404,l),
(143,404,l),
(143,91,ls),
(143,52,o),
(162,39,o),
(192,39,cs),
(221,39,o),
(244,52,o),
(244,97,cs),
(244,160,l),
(296,160,l),
(296,99,ls),
(296,20,o),
(254,-10,o),
(188,-10,cs),
(121,-10,o),
(77,20,o),
(77,90,cs),
(77,404,l),
(0,404,l),
(0,450,l),
(83,450,o),
(98,473,o),
(98,583,c),
(143,583,l)
);
}
);
width = 314;
},
{
layerId = m002;
width = 600;
}
);
unicode = 116;
},
{
color = 11;
export = 0;
glyphname = u;
lastChange = "2025-06-27 05:07:40 +0000";
layers = (
{
layerId = "5DAEE4C7-75B6-49C7-8B62-3AAE62732CCA";
name = "Light Condensed";
shapes = (
{
closed = 1;
nodes = (
(281,407,l),
(331,407,ls),
(352,407,o),
(358,397,o),
(358,375,cs),
(358,201,ls),
(358,111,o),
(311,47,o),
(234,47,cs),
(175,47,o),
(144,84,o),
(144,148,cs),
(144,450,l),
(-8,450,l),
(-8,407,l),
(49,407,ls),
(69,407,o),
(76,397,o),
(76,376,cs),
(76,134,ls),
(76,47,o),
(126,-10,o),
(214,-10,cs),
(279,-10,o),
(327,20,o),
(354,72,c),
(358,72,l),
(358,0,l),
(506,0,l),
(506,42,l),
(453,42,ls),
(433,42,o),
(426,52,o),
(426,74,cs),
(426,450,l),
(281,450,l)
);
}
);
width = 508;
},
{
layerId = m002;
width = 600;
}
);
metricRight = d;
unicode = 117;
},
{
color = 11;
export = 0;
glyphname = v;
lastChange = "2025-06-27 05:07:40 +0000";
layers = (
{
layerId = "5DAEE4C7-75B6-49C7-8B62-3AAE62732CCA";
name = "Light Condensed";
shapes = (
{
closed = 1;
nodes = (
(254,-1,l),
(388,384,ls),
(394,401,o),
(402,407,o),
(423,407,cs),
(447,407,l),
(447,450,l),
(269,450,l),
(269,407,l),
(305,407,ls),
(323,407,o),
(328,395,o),
(322,376,cs),
(228,81,l),
(222,81,l),
(120,376,ls),
(114,393,o),
(117,407,o),
(140,407,cs),
(184,407,l),
(184,450,l),
(-16,450,l),
(-16,407,l),
(12,407,ls),
(31,407,o),
(40,401,o),
(46,384,cs),
(184,-1,l)
);
}
);
width = 451;
},
{
layerId = m002;
width = 600;
}
);
unicode = 118;
},
{
color = 11;
export = 0;
glyphname = w;
lastChange = "2025-06-27 05:07:40 +0000";
layers = (
{
layerId = "5DAEE4C7-75B6-49C7-8B62-3AAE62732CCA";
name = "Light Condensed";
shapes = (
{
closed = 1;
nodes = (
(245,-1,l),
(339,293,l),
(343,293,l),
(430,-1,l),
(502,-1,l),
(623,384,ls),
(628,401,o),
(638,407,o),
(656,407,cs),
(682,407,l),
(682,450,l),
(508,450,l),
(508,407,l),
(546,407,ls),
(561,407,o),
(568,396,o),
(562,376,cs),
(473,75,l),
(469,75,l),
(380,376,ls),
(375,394,o),
(377,407,o),
(400,407,cs),
(440,407,l),
(440,450,l),
(250,450,l),
(250,407,l),
(279,407,ls),
(303,407,o),
(312,391,o),
(305,368,cs),
(217,75,l),
(212,75,l),
(125,372,ls),
(119,392,o),
(119,407,o),
(143,407,cs),
(188,407,l),
(188,450,l),
(-8,450,l),
(-8,407,l),
(20,407,ls),
(40,407,o),
(48,400,o),
(55,378,cs),
(175,-1,l)
);
}
);
width = 677;
},
{
layerId = m002;
width = 600;
}
);
unicode = 119;
},
{
color = 11;
export = 0;
glyphname = x;
lastChange = "2025-06-27 05:07:40 +0000";
layers = (
{
layerId = "5DAEE4C7-75B6-49C7-8B62-3AAE62732CCA";
name = "Light Condensed";
shapes = (
{
closed = 1;
nodes = (
(194,0,l),
(194,43,l),
(157,43,ls),
(138,43,o),
(132,54,o),
(143,69,cs),
(219,186,l),
(299,69,ls),
(309,55,o),
(302,43,o),
(283,43,cs),
(248,43,l),
(248,0,l),
(444,0,l),
(444,43,l),
(415,43,ls),
(400,43,o),
(390,48,o),
(380,62,cs),
(260,235,l),
(369,391,ls),
(377,402,o),
(386,407,o),
(402,407,cs),
(432,407,l),
(432,450,l),
(248,450,l),
(248,407,l),
(284,407,ls),
(305,407,o),
(310,395,o),
(298,378,cs),
(226,272,l),
(154,376,ls),
(144,390,o),
(147,407,o),
(168,407,cs),
(205,407,l),
(205,450,l),
(6,450,l),
(6,407,l),
(35,407,ls),
(52,407,o),
(61,402,o),
(71,389,cs),
(185,225,l),
(74,64,ls),
(63,48,o),
(53,43,o),
(37,43,cs),
(1,43,l),
(1,0,l)
);
}
);
width = 446;
},
{
layerId = m002;
width = 600;
}
);
unicode = 120;
},
{
color = 11;
export = 0;
glyphname = y;
lastChange = "2025-06-27 05:07:40 +0000";
layers = (
{
layerId = "5DAEE4C7-75B6-49C7-8B62-3AAE62732CCA";
name = "Light Condensed";
shapes = (
{
closed = 1;
nodes = (
(166,-226,o),
(205,-193,o),
(233,-115,cs),
(397,384,ls),
(402,401,o),
(411,407,o),
(431,407,cs),
(456,407,l),
(456,450,l),
(273,450,l),
(273,407,l),
(315,407,ls),
(335,407,o),
(341,396,o),
(332,376,cs),
(240,93,l),
(236,93,l),
(131,376,ls),
(124,397,o),
(131,407,o),
(151,407,cs),
(192,407,l),
(192,450,l),
(-6,450,l),
(-6,407,l),
(21,407,ls),
(39,407,o),
(48,402,o),
(55,384,cs),
(209,-10,l),
(177,-112,ls),
(160,-157,o),
(139,-177,o),
(107,-177,cs),
(80,-177,o),
(62,-162,o),
(62,-139,cs),
(62,-115,o),
(83,-111,o),
(83,-87,cs),
(83,-65,o),
(66,-50,o),
(43,-50,cs),
(13,-50,o),
(-6,-75,o),
(-6,-118,cs),
(-6,-184,o),
(37,-226,o),
(105,-226,cs)
);
}
);
width = 454;
},
{
layerId = m002;
width = 600;
}
);
unicode = 121;
},
{
color = 11;
export = 0;
glyphname = z;
lastChange = "2025-06-27 05:07:40 +0000";
layers = (
{
layerId = "5DAEE4C7-75B6-49C7-8B62-3AAE62732CCA";
name = "Light Condensed";
shapes = (
{
closed = 1;
nodes = (
(381,0,l),
(381,159,l),
(340,159,l),
(340,75,o),
(319,46,o),
(278,46,cs),
(105,46,l),
(375,399,l),
(375,450,l),
(46,450,l),
(46,299,l),
(87,299,l),
(87,375,o),
(104,404,o),
(148,404,cs),
(302,404,l),
(29,49,l),
(29,0,l)
);
}
);
width = 412;
},
{
layerId = m002;
width = 600;
}
);
unicode = 122;
},
{
color = 11;
export = 0;
glyphname = ordfeminine;
lastChange = "2025-06-27 05:07:40 +0000";
layers = (
{
layerId = "5DAEE4C7-75B6-49C7-8B62-3AAE62732CCA";
name = "Light Condensed";
shapes = (
{
closed = 1;
nodes = (
(205,304,o),
(239,322,o),
(263,363,c),
(266,363,l),
(268,327,o),
(294,304,o),
(333,304,cs),
(377,304,o),
(398,335,o),
(398,405,cs),
(398,419,o),
(397,422,o),
(397,427,c),
(369,427,l),
(369,422,o),
(369,419,o),
(369,407,cs),
(369,358,o),
(361,342,o),
(340,342,cs),
(322,342,o),
(314,354,o),
(314,380,cs),
(314,556,ls),
(314,608,o),
(269,640,o),
(196,640,cs),
(120,640,o),
(66,603,o),
(66,549,cs),
(66,522,o),
(81,505,o),
(106,505,cs),
(125,505,o),
(137,515,o),
(137,531,cs),
(137,550,o),
(120,554,o),
(120,567,cs),
(120,585,o),
(153,602,o),
(194,602,cs),
(235,602,o),
(260,584,o),
(260,553,cs),
(260,526,ls),
(260,510,o),
(255,503,o),
(243,501,cs),
(169,487,ls),
(88,472,o),
(53,443,o),
(53,388,cs),
(53,334,o),
(88,304,o),
(154,304,cs)
);
},
{
closed = 1;
nodes = (
(130,344,o),
(109,360,o),
(109,393,cs),
(109,428,o),
(134,447,o),
(192,458,cs),
(260,469,l),
(260,440,ls),
(260,384,o),
(221,344,o),
(166,344,cs)
);
}
);
width = 436;
},
{
layerId = m002;
width = 600;
}
);
unicode = 170;
},
{
color = 11;
export = 0;
glyphname = ordmasculine;
lastChange = "2025-06-27 05:07:40 +0000";
layers = (
{
layerId = "5DAEE4C7-75B6-49C7-8B62-3AAE62732CCA";
name = "Light Condensed";
shapes = (
{
closed = 1;
nodes = (
(287,304,o),
(345,364,o),
(345,471,cs),
(345,578,o),
(287,640,o),
(195,640,cs),
(104,640,o),
(46,578,o),
(46,471,cs),
(46,365,o),
(104,304,o),
(195,304,cs)
);
},
{
closed = 1;
nodes = (
(137,347,o),
(103,385,o),
(103,471,cs),
(103,559,o),
(137,597,o),
(195,597,cs),
(253,597,o),
(287,559,o),
(287,471,cs),
(287,385,o),
(253,347,o),
(195,347,cs)
);
}
);
width = 391;
},
{
layerId = m002;
width = 600;
}
);
unicode = 186;
},
{
color = 11;
export = 0;
glyphname = zero;
lastChange = "2025-06-27 05:07:40 +0000";
layers = (
{
layerId = "5DAEE4C7-75B6-49C7-8B62-3AAE62732CCA";
name = "Light Condensed";
shapes = (
{
closed = 1;
nodes = (
(482,-10,o),
(577,102,o),
(577,315,cs),
(577,529,o),
(483,640,o),
(318,640,cs),
(153,640,o),
(59,529,o),
(59,314,cs),
(59,101,o),
(153,-10,o),
(317,-10,cs)
);
},
{
closed = 1;
nodes = (
(199,49,o),
(136,128,o),
(136,314,cs),
(136,500,o),
(199,581,o),
(321,581,cs),
(441,581,o),
(500,504,o),
(500,314,cs),
(500,126,o),
(441,49,o),
(321,49,cs)
);
}
);
width = 636;
},
{
layerId = m002;
width = 600;
}
);
unicode = 48;
},
{
color = 11;
export = 0;
glyphname = one;
lastChange = "2025-06-27 05:07:40 +0000";
layers = (
{
layerId = "5DAEE4C7-75B6-49C7-8B62-3AAE62732CCA";
name = "Light Condensed";
shapes = (
{
closed = 1;
nodes = (
(335,0,l),
(335,50,l),
(246,50,ls),
(228,50,o),
(217,61,o),
(217,81,cs),
(217,630,l),
(168,630,l),
(125,601,o),
(96,592,o),
(24,587,c),
(24,539,l),
(145,539,l),
(145,80,ls),
(145,61,o),
(134,50,o),
(113,50,cs),
(22,50,l),
(22,0,l)
);
}
);
width = 346;
},
{
layerId = m002;
width = 600;
}
);
unicode = 49;
},
{
color = 11;
export = 0;
glyphname = two;
lastChange = "2025-06-27 05:07:40 +0000";
layers = (
{
layerId = "5DAEE4C7-75B6-49C7-8B62-3AAE62732CCA";
name = "Light Condensed";
shapes = (
{
closed = 1;
nodes = (
(378,582,o),
(434,538,o),
(434,465,cs),
(434,269,o),
(53,288,o),
(53,59,cs),
(53,12,o),
(69,-10,o),
(103,-10,cs),
(128,-10,o),
(143,0,o),
(143,19,cs),
(143,35,o),
(130,35,o),
(130,47,cs),
(130,61,o),
(150,72,o),
(181,72,cs),
(273,72,o),
(286,-9,o),
(390,-9,cs),
(486,-9,o),
(536,62,o),
(536,203,cs),
(536,238,l),
(479,238,l),
(479,112,o),
(455,57,o),
(385,57,cs),
(315,57,o),
(287,117,o),
(201,117,cs),
(166,117,o),
(141,109,o),
(126,93,c),
(124,94,l),
(124,242,o),
(511,245,o),
(511,469,cs),
(511,574,o),
(427,640,o),
(291,640,cs),
(153,640,o),
(68,571,o),
(68,459,cs),
(68,399,o),
(94,364,o),
(137,364,cs),
(168,364,o),
(190,384,o),
(190,412,cs),
(190,453,o),
(143,447,o),
(143,492,cs),
(143,544,o),
(206,582,o),
(289,582,cs)
);
}
);
width = 586;
},
{
layerId = m002;
width = 600;
}
);
unicode = 50;
},
{
color = 11;
export = 0;
glyphname = three;
lastChange = "2025-06-27 05:07:40 +0000";
layers = (
{
layerId = "5DAEE4C7-75B6-49C7-8B62-3AAE62732CCA";
name = "Light Condensed";
shapes = (
{
closed = 1;
nodes = (
(425,-10,o),
(517,59,o),
(517,172,cs),
(517,245,o),
(478,303,o),
(417,321,c),
(417,322,l),
(479,348,o),
(511,397,o),
(511,465,cs),
(511,574,o),
(425,640,o),
(284,640,cs),
(146,640,o),
(57,576,o),
(57,477,cs),
(57,423,o),
(83,388,o),
(124,388,cs),
(153,388,o),
(173,406,o),
(173,430,cs),
(173,462,o),
(135,462,o),
(135,502,cs),
(135,550,o),
(192,581,o),
(284,581,cs),
(386,581,o),
(436,542,o),
(436,461,cs),
(436,382,o),
(390,345,o),
(288,345,cs),
(212,345,l),
(213,289,l),
(291,289,ls),
(392,289,o),
(442,250,o),
(442,173,cs),
(442,92,o),
(385,48,o),
(281,48,cs),
(191,48,o),
(129,80,o),
(129,124,cs),
(129,160,o),
(167,164,o),
(167,196,cs),
(167,222,o),
(147,238,o),
(117,238,cs),
(75,238,o),
(49,204,o),
(49,150,cs),
(49,52,o),
(137,-10,o),
(278,-10,cs)
);
}
);
width = 566;
},
{
layerId = m002;
width = 600;
}
);
unicode = 51;
},
{
color = 11;
export = 0;
glyphname = four;
lastChange = "2025-06-27 05:07:40 +0000";
layers = (
{
layerId = "5DAEE4C7-75B6-49C7-8B62-3AAE62732CCA";
name = "Light Condensed";
shapes = (
{
closed = 1;
nodes = (
(104,238,l),
(338,529,l),
(341,529,l),
(341,235,l),
(104,235,l)
);
},
{
closed = 1;
nodes = (
(341,184,l),
(341,84,ls),
(341,60,o),
(332,50,o),
(306,50,cs),
(212,50,l),
(212,0,l),
(523,0,l),
(523,50,l),
(444,50,ls),
(423,50,o),
(414,59,o),
(414,84,cs),
(414,184,l),
(523,184,l),
(523,235,l),
(414,235,l),
(414,637,l),
(354,637,l),
(28,225,l),
(28,184,l)
);
}
);
width = 547;
},
{
layerId = m002;
width = 600;
}
);
unicode = 52;
},
{
color = 11;
export = 0;
glyphname = five;
lastChange = "2025-06-27 05:07:40 +0000";
layers = (
{
layerId = "5DAEE4C7-75B6-49C7-8B62-3AAE62732CCA";
name = "Light Condensed";
shapes = (
{
closed = 1;
nodes = (
(130,288,l),
(154,327,o),
(209,348,o),
(283,348,cs),
(390,348,o),
(441,300,o),
(441,197,cs),
(441,95,o),
(390,48,o),
(280,48,cs),
(192,48,o),
(128,79,o),
(128,121,cs),
(128,157,o),
(166,161,o),
(166,193,cs),
(166,218,o),
(146,235,o),
(116,235,cs),
(75,235,o),
(49,202,o),
(49,148,cs),
(49,50,o),
(136,-10,o),
(278,-10,cs),
(433,-10,o),
(515,63,o),
(515,201,cs),
(515,335,o),
(438,405,o),
(292,405,cs),
(224,405,o),
(175,391,o),
(142,361,c),
(139,361,l),
(158,559,l),
(183,548,o),
(237,541,o),
(302,541,cs),
(429,541,o),
(488,569,o),
(508,637,c),
(506,640,l),
(453,614,o),
(400,604,o),
(314,604,cs),
(226,604,o),
(165,615,o),
(108,640,c),
(106,638,l),
(74,288,l)
);
}
);
width = 562;
},
{
layerId = m002;
width = 600;
}
);
unicode = 53;
},
{
color = 11;
export = 0;
glyphname = six;
lastChange = "2025-06-27 05:07:40 +0000";
layers = (
{
layerId = "5DAEE4C7-75B6-49C7-8B62-3AAE62732CCA";
name = "Light Condensed";
shapes = (
{
closed = 1;
nodes = (
(438,332,o),
(493,287,o),
(493,195,cs),
(493,100,o),
(434,48,o),
(325,48,cs),
(213,48,o),
(146,104,o),
(146,196,cs),
(146,285,o),
(207,332,o),
(325,332,cs)
);
},
{
closed = 1;
nodes = (
(417,582,o),
(467,558,o),
(467,520,cs),
(467,489,o),
(437,484,o),
(437,453,cs),
(437,426,o),
(458,408,o),
(489,408,cs),
(530,408,o),
(555,440,o),
(555,491,cs),
(555,584,o),
(472,640,o),
(335,640,cs),
(148,640,o),
(59,534,o),
(59,308,cs),
(59,90,o),
(142,-10,o),
(322,-10,cs),
(478,-10,o),
(568,67,o),
(568,199,cs),
(568,323,o),
(488,388,o),
(331,388,cs),
(235,388,o),
(171,364,o),
(136,316,c),
(134,317,l),
(135,506,o),
(194,582,o),
(336,582,cs)
);
}
);
width = 617;
},
{
layerId = m002;
width = 600;
}
);
unicode = 54;
},
{
color = 11;
export = 0;
glyphname = seven;
lastChange = "2025-06-27 05:07:40 +0000";
layers = (
{
layerId = "5DAEE4C7-75B6-49C7-8B62-3AAE62732CCA";
name = "Light Condensed";
shapes = (
{
closed = 1;
nodes = (
(96,382,l),
(96,407,ls),
(96,516,o),
(128,572,o),
(189,572,cs),
(252,572,o),
(284,512,o),
(366,512,cs),
(401,512,o),
(426,522,o),
(446,547,c),
(448,546,l),
(448,438,o),
(216,376,o),
(216,61,cs),
(216,0,l),
(295,0,l),
(295,48,ls),
(295,398,o),
(512,410,o),
(512,571,c),
(512,617,o),
(495,640,o),
(461,640,cs),
(438,640,o),
(423,629,o),
(423,611,cs),
(423,596,o),
(435,592,o),
(435,581,cs),
(435,568,o),
(415,558,o),
(389,558,cs),
(307,558,o),
(286,640,o),
(191,640,cs),
(140,640,o),
(107,617,o),
(92,572,c),
(91,572,l),
(91,630,l),
(41,630,l),
(41,382,l)
);
}
);
width = 526;
},
{
layerId = m002;
width = 600;
}
);
unicode = 55;
},
{
color = 11;
export = 0;
glyphname = eight;
lastChange = "2025-06-27 05:07:40 +0000";
layers = (
{
layerId = "5DAEE4C7-75B6-49C7-8B62-3AAE62732CCA";
name = "Light Condensed";
shapes = (
{
closed = 1;
nodes = (
(436,640,o),
(518,583,o),
(518,486,cs),
(518,401,o),
(455,344,o),
(334,316,c),
(282,353,l),
(403,376,o),
(450,412,o),
(450,479,cs),
(450,547,o),
(400,581,o),
(296,581,cs),
(190,581,o),
(136,547,o),
(136,483,cs),
(136,308,o),
(536,397,o),
(536,164,cs),
(536,53,o),
(447,-9,o),
(289,-9,cs),
(133,-9,o),
(47,52,o),
(47,160,cs),
(47,255,o),
(114,312,o),
(259,343,c),
(302,306,l),
(180,282,o),
(118,234,o),
(118,162,cs),
(118,89,o),
(177,50,o),
(290,50,cs),
(401,50,o),
(459,88,o),
(459,159,cs),
(459,345,o),
(62,258,o),
(62,477,cs),
(62,579,o),
(147,640,o),
(294,640,cs)
);
}
);
width = 583;
},
{
layerId = m002;
width = 600;
}
);
unicode = 56;
},
{
color = 11;
export = 0;
glyphname = nine;
lastChange = "2025-06-27 05:07:40 +0000";
layers = (
{
layerId = "5DAEE4C7-75B6-49C7-8B62-3AAE62732CCA";
name = "Light Condensed";
shapes = (
{
closed = 1;
nodes = (
(180,298,o),
(124,343,o),
(124,433,cs),
(124,527,o),
(187,582,o),
(295,582,cs),
(404,582,o),
(471,525,o),
(471,433,cs),
(471,345,o),
(410,298,o),
(293,298,cs)
);
},
{
closed = 1;
nodes = (
(201,48,o),
(150,72,o),
(150,110,cs),
(150,141,o),
(180,146,o),
(180,177,cs),
(180,204,o),
(160,222,o),
(129,222,cs),
(87,222,o),
(62,190,o),
(62,139,cs),
(62,46,o),
(146,-10,o),
(284,-10,cs),
(471,-10,o),
(558,94,o),
(558,320,cs),
(558,539,o),
(476,640,o),
(299,640,cs),
(143,640,o),
(49,560,o),
(49,429,cs),
(49,307,o),
(130,242,o),
(287,242,cs),
(382,242,o),
(447,267,o),
(481,314,c),
(483,313,l),
(482,122,o),
(425,48,o),
(282,48,cs)
);
}
);
width = 617;
},
{
layerId = m002;
width = 600;
}
);
unicode = 57;
},
{
color = 11;
export = 0;
glyphname = fraction;
lastChange = "2025-06-27 05:07:40 +0000";
layers = (
{
layerId = "5DAEE4C7-75B6-49C7-8B62-3AAE62732CCA";
name = "Light Condensed";
shapes = (
{
closed = 1;
nodes = (
(32,-10,l),
(441,675,l),
(397,675,l),
(-12,-10,l)
);
}
);
width = 429;
},
{
layerId = m002;
width = 600;
}
);
unicode = 8260;
},
{
color = 11;
export = 0;
glyphname = .notdef;
lastChange = "2025-06-27 05:07:40 +0000";
layers = (
{
layerId = "5DAEE4C7-75B6-49C7-8B62-3AAE62732CCA";
name = "Light Condensed";
shapes = (
{
closed = 1;
nodes = (
(0,0,l),
(500,0,l),
(500,700,l),
(0,700,l)
);
},
{
closed = 1;
nodes = (
(250,395,l),
(80,650,l),
(420,650,l)
);
},
{
closed = 1;
nodes = (
(280,350,l),
(450,605,l),
(450,95,l)
);
},
{
closed = 1;
nodes = (
(80,50,l),
(250,305,l),
(420,50,l)
);
},
{
closed = 1;
nodes = (
(50,605,l),
(220,350,l),
(50,95,l)
);
}
);
width = 500;
},
{
layerId = m002;
width = 600;
}
);
},
{
color = 11;
export = 0;
glyphname = period;
lastChange = "2025-06-27 05:07:40 +0000";
layers = (
{
layerId = "5DAEE4C7-75B6-49C7-8B62-3AAE62732CCA";
name = "Light Condensed";
shapes = (
{
closed = 1;
nodes = (
(109,-10,o),
(130,10,o),
(130,34,cs),
(130,58,o),
(109,79,o),
(85,79,cs),
(60,79,o),
(41,58,o),
(41,34,cs),
(41,10,o),
(60,-10,o),
(85,-10,cs)
);
}
);
width = 170;
},
{
layerId = m002;
width = 600;
}
);
unicode = 46;
},
{
color = 11;
export = 0;
glyphname = comma;
lastChange = "2025-06-27 05:07:40 +0000";
layers = (
{
layerId = "5DAEE4C7-75B6-49C7-8B62-3AAE62732CCA";
name = "Light Condensed";
shapes = (
{
closed = 1;
nodes = (
(59,-89,l),
(98,-74,o),
(131,-23,o),
(131,21,cs),
(131,53,o),
(113,78,o),
(84,78,cs),
(58,78,o),
(41,58,o),
(41,33,cs),
(41,12,o),
(53,-2,o),
(73,-2,cs),
(82,-2,o),
(89,1,o),
(95,7,c),
(96,7,l),
(97,-25,o),
(80,-54,o),
(48,-71,c)
);
}
);
width = 172;
},
{
layerId = m002;
width = 600;
}
);
unicode = 44;
},
{
color = 11;
export = 0;
glyphname = exclam;
lastChange = "2025-06-27 05:07:40 +0000";
layers = (
{
layerId = "5DAEE4C7-75B6-49C7-8B62-3AAE62732CCA";
name = "Light Condensed";
shapes = (
{
closed = 1;
nodes = (
(136,-10,o),
(156,11,o),
(156,35,cs),
(156,60,o),
(136,80,o),
(111,80,cs),
(86,80,o),
(66,60,o),
(66,35,cs),
(66,10,o),
(86,-10,o),
(111,-10,cs)
);
},
{
closed = 1;
nodes = (
(151,607,ls),
(152,617,o),
(152,620,o),
(152,626,cs),
(152,659,o),
(141,675,o),
(111,675,cs),
(82,675,o),
(71,660,o),
(71,626,cs),
(71,621,o),
(71,617,o),
(72,607,cs),
(96,145,l),
(127,145,l)
);
}
);
width = 222;
},
{
layerId = m002;
width = 600;
}
);
unicode = 33;
},
{
color = 11;
export = 0;
glyphname = question;
lastChange = "2025-06-27 05:07:40 +0000";
layers = (
{
layerId = "5DAEE4C7-75B6-49C7-8B62-3AAE62732CCA";
name = "Light Condensed";
shapes = (
{
closed = 1;
nodes = (
(231,145,l),
(231,167,ls),
(231,312,o),
(439,355,o),
(439,518,cs),
(439,616,o),
(364,675,o),
(237,675,cs),
(107,675,o),
(29,613,o),
(29,512,cs),
(29,457,o),
(52,425,o),
(91,425,cs),
(117,425,o),
(135,439,o),
(135,462,cs),
(135,496,o),
(97,494,o),
(97,536,cs),
(97,585,o),
(149,617,o),
(228,617,cs),
(314,617,o),
(360,579,o),
(360,509,cs),
(360,370,o),
(186,325,o),
(186,188,cs),
(186,145,l)
);
},
{
closed = 1;
nodes = (
(234,-10,o),
(254,10,o),
(254,34,cs),
(254,58,o),
(234,78,o),
(210,78,cs),
(186,78,o),
(166,58,o),
(166,34,cs),
(166,9,o),
(186,-10,o),
(210,-10,cs)
);
}
);
width = 468;
},
{
layerId = m002;
width = 600;
}
);
unicode = 63;
},
{
color = 11;
export = 0;
glyphname = bullet;
lastChange = "2025-06-27 05:07:40 +0000";
layers = (
{
layerId = "5DAEE4C7-75B6-49C7-8B62-3AAE62732CCA";
name = "Light Condensed";
shapes = (
{
closed = 1;
nodes = (
(217,214,o),
(265,262,o),
(265,320,cs),
(265,377,o),
(217,425,o),
(160,425,cs),
(102,425,o),
(54,377,o),
(54,320,cs),
(54,262,o),
(102,214,o),
(160,214,cs)
);
}
);
width = 319;
},
{
layerId = m002;
width = 600;
}
);
unicode = 8226;
},
{
color = 11;
export = 0;
glyphname = asterisk;
lastChange = "2025-06-27 05:07:40 +0000";
layers = (
{
layerId = "5DAEE4C7-75B6-49C7-8B62-3AAE62732CCA";
name = "Light Condensed";
shapes = (
{
closed = 1;
nodes = (
(128,529,o),
(95,529,o),
(72,533,cs),
(62,535,o),
(54,538,o),
(54,541,cs),
(54,546,o),
(66,549,o),
(87,549,cs),
(124,549,o),
(125,533,o),
(178,525,c),
(180,526,l),
(180,536,o),
(160,550,o),
(160,559,cs),
(160,564,o),
(171,568,o),
(191,568,cs),
(211,568,o),
(222,564,o),
(222,559,cs),
(222,550,o),
(201,537,o),
(201,526,c),
(203,525,l),
(256,533,o),
(258,549,o),
(294,549,cs),
(316,549,o),
(328,546,o),
(328,541,cs),
(328,538,o),
(320,535,o),
(309,533,cs),
(287,529,o),
(253,529,o),
(214,524,c),
(214,523,l),
(253,518,o),
(287,518,o),
(309,514,cs),
(320,512,o),
(328,509,o),
(328,506,cs),
(328,501,o),
(316,498,o),
(294,498,cs),
(258,498,o),
(256,514,o),
(203,522,c),
(201,522,l),
(201,510,o),
(222,498,o),
(222,488,cs),
(222,483,o),
(211,479,o),
(191,479,cs),
(171,479,o),
(160,483,o),
(160,488,cs),
(160,498,o),
(180,511,o),
(180,522,c),
(178,522,l),
(125,514,o),
(124,498,o),
(87,498,cs),
(66,498,o),
(54,501,o),
(54,506,cs),
(54,509,o),
(62,512,o),
(72,514,cs),
(95,518,o),
(128,518,o),
(168,523,c),
(168,524,l)
);
}
);
width = 382;
},
{
layerId = m002;
width = 600;
}
);
unicode = 42;
},
{
color = 11;
export = 0;
glyphname = numbersign;
lastChange = "2025-06-27 05:07:40 +0000";
layers = (
{
layerId = "5DAEE4C7-75B6-49C7-8B62-3AAE62732CCA";
name = "Light Condensed";
shapes = (
{
closed = 1;
nodes = (
(119,0,l),
(181,0,l),
(271,630,l),
(209,630,l)
);
},
{
closed = 1;
nodes = (
(296,0,l),
(359,0,l),
(448,630,l),
(385,630,l)
);
},
{
closed = 1;
nodes = (
(64,381,l),
(524,381,l),
(524,434,l),
(64,434,l)
);
},
{
closed = 1;
nodes = (
(37,197,l),
(497,197,l),
(497,251,l),
(37,251,l)
);
}
);
width = 560;
},
{
layerId = m002;
width = 600;
}
);
unicode = 35;
},
{
color = 11;
export = 0;
glyphname = slash;
lastChange = "2025-06-27 05:07:40 +0000";
layers = (
{
layerId = "5DAEE4C7-75B6-49C7-8B62-3AAE62732CCA";
name = "Light Condensed";
shapes = (
{
closed = 1;
nodes = (
(35,-10,l),
(225,675,l),
(177,675,l),
(-12,-10,l)
);
}
);
width = 213;
},
{
layerId = m002;
width = 600;
}
);
unicode = 47;
},
{
color = 11;
export = 0;
glyphname = backslash;
lastChange = "2025-06-27 05:07:40 +0000";
layers = (
{
layerId = "5DAEE4C7-75B6-49C7-8B62-3AAE62732CCA";
name = "Light Condensed";
shapes = (
{
closed = 1;
nodes = (
(35,675,l),
(-12,675,l),
(177,-10,l),
(225,-10,l)
);
}
);
width = 213;
},
{
layerId = m002;
width = 600;
}
);
unicode = 92;
},
{
color = 11;
export = 0;
glyphname = hyphen;
lastChange = "2025-06-27 05:07:40 +0000";
layers = (
{
layerId = "5DAEE4C7-75B6-49C7-8B62-3AAE62732CCA";
name = "Light Condensed";
shapes = (
{
closed = 1;
nodes = (
(313,194,l),
(313,260,l),
(44,260,l),
(44,194,l)
);
}
);
width = 357;
},
{
layerId = m002;
width = 600;
}
);
unicode = 45;
},
{
color = 11;
export = 0;
glyphname = endash;
lastChange = "2025-06-27 05:07:40 +0000";
layers = (
{
layerId = "5DAEE4C7-75B6-49C7-8B62-3AAE62732CCA";
name = "Light Condensed";
shapes = (
{
closed = 1;
nodes = (
(432,200,l),
(432,239,l),
(0,239,l),
(0,200,l)
);
}
);
width = 432;
},
{
layerId = m002;
width = 600;
}
);
unicode = 8211;
},
{
color = 11;
export = 0;
glyphname = emdash;
lastChange = "2025-06-27 05:07:40 +0000";
layers = (
{
layerId = "5DAEE4C7-75B6-49C7-8B62-3AAE62732CCA";
name = "Light Condensed";
shapes = (
{
closed = 1;
nodes = (
(677,200,l),
(677,239,l),
(0,239,l),
(0,200,l)
);
}
);
width = 677;
},
{
layerId = m002;
width = 600;
}
);
unicode = 8212;
},
{
color = 11;
export = 0;
glyphname = parenleft;
lastChange = "2025-06-27 05:07:40 +0000";
layers = (
{
layerId = "5DAEE4C7-75B6-49C7-8B62-3AAE62732CCA";
name = "Light Condensed";
shapes = (
{
closed = 1;
nodes = (
(279,675,l),
(172,644,o),
(90,468,o),
(90,249,cs),
(90,31,o),
(173,-152,o),
(279,-184,c),
(279,-136,l),
(207,-102,o),
(157,52,o),
(157,250,cs),
(157,449,o),
(206,596,o),
(279,627,c)
);
}
);
width = 321;
},
{
layerId = m002;
width = 600;
}
);
unicode = 40;
},
{
color = 11;
export = 0;
glyphname = braceleft;
lastChange = "2025-06-27 05:07:40 +0000";
layers = (
{
layerId = "5DAEE4C7-75B6-49C7-8B62-3AAE62732CCA";
name = "Light Condensed";
shapes = (
{
closed = 1;
nodes = (
(34,242,l),
(95,223,o),
(110,197,o),
(110,140,cs),
(110,7,ls),
(110,-131,o),
(142,-171,o),
(263,-171,c),
(263,-148,l),
(194,-142,o),
(168,-108,o),
(168,-22,cs),
(168,121,ls),
(168,203,o),
(149,236,o),
(89,252,c),
(89,254,l),
(149,270,o),
(168,304,o),
(168,383,cs),
(168,520,ls),
(168,593,o),
(198,636,o),
(263,643,c),
(263,665,l),
(151,665,o),
(110,613,o),
(110,484,cs),
(110,358,ls),
(110,309,o),
(94,284,o),
(34,264,c)
);
}
);
width = 286;
},
{
layerId = m002;
width = 600;
}
);
unicode = 123;
},
{
color = 11;
export = 0;
glyphname = bracketleft;
lastChange = "2025-06-27 05:07:40 +0000";
layers = (
{
layerId = "5DAEE4C7-75B6-49C7-8B62-3AAE62732CCA";
name = "Light Condensed";
shapes = (
{
closed = 1;
nodes = (
(253,-174,ls),
(253,-131,ls),
(156,-131,ls),
(156,622,ls),
(253,622,ls),
(253,665,ls),
(98,665,ls),
(98,-174,ls)
);
}
);
width = 290;
},
{
layerId = m002;
width = 600;
}
);
unicode = 91;
},
{
color = 11;
export = 0;
glyphname = guillemetleft;
lastChange = "2025-06-27 05:07:40 +0000";
layers = (
{
layerId = "5DAEE4C7-75B6-49C7-8B62-3AAE62732CCA";
name = "Light Condensed";
shapes = (
{
closed = 1;
nodes = (
(115,217,o),
(117,209,o),
(126,196,cs),
(217,63,l),
(261,63,l),
(178,226,l),
(261,388,l),
(217,388,l),
(126,255,ls),
(117,242,o),
(115,234,o),
(115,226,cs)
);
},
{
closed = 1;
nodes = (
(113,217,o),
(116,209,o),
(125,196,cs),
(215,63,l),
(259,63,l),
(176,226,l),
(259,388,l),
(215,388,l),
(125,255,ls),
(116,242,o),
(113,234,o),
(113,226,cs)
);
}
);
width = 383;
},
{
layerId = m002;
width = 600;
}
);
unicode = 171;
},
{
color = 11;
export = 0;
glyphname = guilsinglleft;
lastChange = "2025-06-27 05:07:40 +0000";
layers = (
{
layerId = "5DAEE4C7-75B6-49C7-8B62-3AAE62732CCA";
name = "Light Condensed";
shapes = (
{
closed = 1;
nodes = (
(37,217,o),
(40,209,o),
(49,196,cs),
(140,63,l),
(183,63,l),
(100,226,l),
(183,388,l),
(140,388,l),
(49,255,ls),
(40,242,o),
(37,234,o),
(37,226,cs)
);
}
);
width = 230;
},
{
layerId = m002;
width = 600;
}
);
unicode = 8249;
},
{
color = 11;
export = 0;
glyphname = quotesingle;
lastChange = "2025-06-27 05:07:40 +0000";
layers = (
{
layerId = "5DAEE4C7-75B6-49C7-8B62-3AAE62732CCA";
name = "Light Condensed";
shapes = (
{
closed = 1;
nodes = (
(91,603,ls),
(93,620,o),
(94,632,o),
(94,641,cs),
(94,665,o),
(84,675,o),
(65,675,cs),
(46,675,o),
(36,665,o),
(36,641,cs),
(36,632,o),
(37,620,o),
(39,603,cs),
(51,474,l),
(78,474,l)
);
}
);
width = 130;
},
{
layerId = m002;
width = 600;
}
);
unicode = 39;
},
{
color = 11;
export = 0;
glyphname = florin;
lastChange = "2025-06-27 05:07:40 +0000";
layers = (
{
layerId = "5DAEE4C7-75B6-49C7-8B62-3AAE62732CCA";
name = "Light Condensed";
shapes = (
{
closed = 1;
nodes = (
(93,-43,ls),
(83,-138,o),
(51,-181,o),
(-5,-181,cs),
(-37,-181,o),
(-58,-168,o),
(-58,-145,cs),
(-58,-119,o),
(-31,-109,o),
(-31,-84,cs),
(-31,-65,o),
(-44,-54,o),
(-64,-54,cs),
(-99,-54,o),
(-122,-84,o),
(-122,-128,cs),
(-122,-191,o),
(-79,-226,o),
(-8,-226,cs),
(89,-226,o),
(146,-163,o),
(159,-37,cs),
(215,491,ls),
(225,590,o),
(247,630,o),
(313,630,cs),
(346,630,o),
(366,617,o),
(366,594,cs),
(365,566,o),
(339,560,o),
(339,533,cs),
(339,514,o),
(352,503,o),
(374,503,cs),
(408,503,o),
(430,532,o),
(430,577,cs),
(430,640,o),
(387,675,o),
(317,675,cs),
(211,675,o),
(162,611,o),
(149,486,cs)
);
},
{
closed = 1;
nodes = (
(340,403,l),
(340,447,l),
(25,447,l),
(25,403,l)
);
}
);
width = 430;
},
{
layerId = m002;
width = 600;
}
);
unicode = 402;
},
{
color = 11;
export = 0;
glyphname = at;
lastChange = "2025-06-27 05:07:40 +0000";
layers = (
{
layerId = "5DAEE4C7-75B6-49C7-8B62-3AAE62732CCA";
name = "Light Condensed";
shapes = (
{
closed = 1;
nodes = (
(429,-64,o),
(513,-37,o),
(552,2,c),
(533,32,l),
(497,-4,o),
(423,-27,o),
(347,-27,cs),
(191,-27,o),
(89,72,o),
(89,226,cs),
(89,377,o),
(187,480,o),
(333,480,cs),
(469,480,o),
(565,391,o),
(565,264,cs),
(565,183,o),
(525,125,o),
(469,125,cs),
(438,125,o),
(422,143,o),
(422,179,cs),
(422,190,o),
(424,200,o),
(429,219,cs),
(465,369,l),
(421,369,l),
(408,317,l),
(398,353,o),
(370,373,o),
(327,373,cs),
(242,373,o),
(174,295,o),
(174,199,cs),
(174,129,o),
(210,89,o),
(272,89,cs),
(317,89,o),
(353,110,o),
(386,156,c),
(390,156,l),
(390,115,o),
(417,89,o),
(463,89,cs),
(545,89,o),
(604,164,o),
(604,266,cs),
(604,410,o),
(488,517,o),
(331,517,cs),
(166,517,o),
(49,396,o),
(49,224,cs),
(49,51,o),
(167,-64,o),
(344,-64,cs)
);
},
{
closed = 1;
nodes = (
(243,128,o),
(223,154,o),
(223,200,cs),
(223,273,o),
(269,332,o),
(325,332,cs),
(363,332,o),
(386,305,o),
(386,259,cs),
(386,190,o),
(336,128,o),
(280,128,cs)
);
}
);
width = 653;
},
{
layerId = m002;
width = 600;
}
);
unicode = 64;
},
{
color = 11;
export = 0;
glyphname = ampersand;
lastChange = "2025-06-27 05:07:40 +0000";
layers = (
{
layerId = "5DAEE4C7-75B6-49C7-8B62-3AAE62732CCA";
name = "Light Condensed";
shapes = (
{
closed = 1;
nodes = (
(429,115,o),
(342,49,o),
(226,49,cs),
(139,49,o),
(92,90,o),
(92,159,cs),
(92,345,o),
(449,340,o),
(449,520,cs),
(449,594,o),
(390,640,o),
(295,640,cs),
(191,640,o),
(129,585,o),
(129,492,cs),
(129,437,o),
(150,376,o),
(208,274,cs),
(277,145,ls),
(334,42,o),
(412,-10,o),
(508,-10,cs),
(626,-10,o),
(684,67,o),
(684,225,c),
(625,225,l),
(622,100,o),
(588,48,o),
(509,48,cs),
(439,48,o),
(387,87,o),
(331,185,cs),
(270,295,ls),
(224,374,o),
(199,446,o),
(199,496,cs),
(199,552,o),
(233,583,o),
(295,583,cs),
(350,583,o),
(381,559,o),
(381,517,cs),
(381,375,o),
(17,387,o),
(17,155,cs),
(17,50,o),
(89,-10,o),
(221,-10,cs),
(370,-10,o),
(463,62,o),
(550,251,cs),
(571,297,o),
(571,299,o),
(602,299,cs),
(662,299,l),
(662,348,l),
(401,348,l),
(401,299,l),
(454,299,ls),
(480,299,o),
(492,293,o),
(492,277,cs),
(492,270,o),
(490,263,o),
(483,246,cs)
);
}
);
width = 690;
},
{
layerId = m002;
width = 600;
}
);
unicode = 38;
},
{
color = 11;
export = 0;
glyphname = paragraph;
lastChange = "2025-06-27 05:07:40 +0000";
layers = (
{
layerId = "5DAEE4C7-75B6-49C7-8B62-3AAE62732CCA";
name = "Light Condensed";
shapes = (
{
closed = 1;
nodes = (
(273,-149,l),
(273,579,l),
(326,579,l),
(326,-149,l),
(394,-149,l),
(394,533,ls),
(394,564,o),
(407,579,o),
(436,579,cs),
(464,579,l),
(464,630,l),
(235,630,ls),
(95,630,o),
(26,568,o),
(26,432,cs),
(26,300,o),
(92,225,o),
(205,225,c),
(205,-149,l)
);
}
);
width = 482;
},
{
layerId = m002;
width = 600;
}
);
unicode = 182;
},
{
color = 11;
export = 0;
glyphname = section;
lastChange = "2025-06-27 05:07:40 +0000";
layers = (
{
layerId = "5DAEE4C7-75B6-49C7-8B62-3AAE62732CCA";
name = "Light Condensed";
shapes = (
{
closed = 1;
nodes = (
(159,639,o),
(78,583,o),
(78,491,cs),
(78,291,o),
(458,360,o),
(458,212,cs),
(458,156,o),
(405,125,o),
(309,125,c),
(317,71,l),
(448,71,o),
(527,127,o),
(527,220,cs),
(527,423,o),
(147,367,o),
(147,501,cs),
(147,553,o),
(205,584,o),
(300,584,cs),
(394,584,o),
(447,555,o),
(447,503,cs),
(447,472,o),
(426,464,o),
(426,438,cs),
(426,415,o),
(442,400,o),
(466,400,cs),
(498,400,o),
(516,427,o),
(516,476,cs),
(516,580,o),
(436,639,o),
(295,639,cs)
);
},
{
closed = 1;
nodes = (
(420,-165,o),
(500,-109,o),
(500,-16,cs),
(500,183,o),
(120,114,o),
(120,262,cs),
(120,318,o),
(173,349,o),
(269,349,c),
(261,404,l),
(130,404,o),
(51,347,o),
(51,254,cs),
(51,51,o),
(431,106,o),
(431,-27,cs),
(431,-77,o),
(374,-110,o),
(287,-110,cs),
(200,-110,o),
(143,-78,o),
(143,-28,cs),
(143,2,o),
(163,10,o),
(163,36,cs),
(163,59,o),
(148,74,o),
(124,74,cs),
(92,74,o),
(74,48,o),
(74,-2,cs),
(74,-106,o),
(153,-165,o),
(289,-165,cs)
);
}
);
width = 576;
},
{
layerId = m002;
width = 600;
}
);
unicode = 167;
},
{
color = 11;
export = 0;
glyphname = copyright;
lastChange = "2025-06-27 05:07:40 +0000";
layers = (
{
layerId = "5DAEE4C7-75B6-49C7-8B62-3AAE62732CCA";
name = "Light Condensed";
shapes = (
{
closed = 1;
nodes = (
(563,-10,o),
(708,136,o),
(708,315,cs),
(708,494,o),
(563,640,o),
(384,640,cs),
(204,640,o),
(59,494,o),
(59,315,cs),
(59,136,o),
(204,-10,o),
(384,-10,cs)
);
},
{
closed = 1;
nodes = (
(226,32,o),
(101,158,o),
(101,315,cs),
(101,472,o),
(226,598,o),
(384,598,cs),
(541,598,o),
(666,472,o),
(666,315,cs),
(666,158,o),
(541,32,o),
(384,32,cs)
);
},
{
closed = 1;
nodes = (
(306,160,o),
(265,212,o),
(265,314,cs),
(265,415,o),
(306,470,o),
(388,470,cs),
(449,470,o),
(486,438,o),
(495,367,c),
(538,367,l),
(538,509,l),
(502,509,l),
(495,462,l),
(493,462,l),
(473,494,o),
(438,515,o),
(382,515,cs),
(268,515,o),
(209,446,o),
(209,315,cs),
(209,185,o),
(267,115,o),
(383,115,cs),
(488,115,o),
(542,172,o),
(542,274,c),
(495,274,l),
(495,199,o),
(455,160,o),
(387,160,cs)
);
}
);
width = 767;
},
{
layerId = m002;
width = 600;
}
);
unicode = 169;
},
{
color = 11;
export = 0;
glyphname = registered;
lastChange = "2025-06-27 05:07:40 +0000";
layers = (
{
layerId = "5DAEE4C7-75B6-49C7-8B62-3AAE62732CCA";
name = "Light Condensed";
shapes = (
{
closed = 1;
nodes = (
(361,234,o),
(451,325,o),
(451,437,cs),
(451,549,o),
(361,640,o),
(249,640,cs),
(136,640,o),
(46,549,o),
(46,437,cs),
(46,325,o),
(136,234,o),
(249,234,cs)
);
},
{
closed = 1;
nodes = (
(150,260,o),
(72,339,o),
(72,437,cs),
(72,535,o),
(150,614,o),
(249,614,cs),
(347,614,o),
(425,535,o),
(425,437,cs),
(425,339,o),
(347,260,o),
(249,260,cs)
);
},
{
closed = 1;
nodes = (
(164,342,ls),
(175,342,o),
(175,345,o),
(175,354,cs),
(175,519,ls),
(175,532,o),
(172,531,o),
(162,531,cs),
(140,531,l),
(140,555,l),
(259,555,ls),
(316,555,o),
(344,530,o),
(344,491,cs),
(344,450,o),
(312,424,o),
(260,424,cs),
(202,424,l),
(202,450,l),
(253,450,ls),
(293,450,o),
(312,466,o),
(312,490,cs),
(312,514,o),
(294,529,o),
(257,529,cs),
(207,529,l),
(207,354,ls),
(207,342,o),
(211,342,o),
(219,342,cs),
(244,342,l),
(244,318,l),
(140,318,l),
(140,342,l)
);
},
{
closed = 1;
nodes = (
(302,314,o),
(288,330,o),
(288,358,cs),
(288,382,ls),
(288,412,o),
(280,424,o),
(254,424,c),
(254,436,l),
(279,436,o),
(290,435,o),
(295,430,c),
(295,428,l),
(314,423,o),
(320,406,o),
(320,385,cs),
(320,363,ls),
(320,343,o),
(325,337,o),
(334,337,cs),
(342,337,o),
(347,344,o),
(347,362,cs),
(347,382,l),
(370,382,l),
(370,358,ls),
(370,328,o),
(357,314,o),
(331,314,cs)
);
}
);
width = 497;
},
{
layerId = m002;
width = 600;
}
);
unicode = 174;
},
{
color = 11;
export = 0;
glyphname = trademark;
lastChange = "2025-06-27 05:07:40 +0000";
layers = (
{
layerId = "5DAEE4C7-75B6-49C7-8B62-3AAE62732CCA";
name = "Light Condensed";
shapes = (
{
closed = 1;
nodes = (
(108,236,l),
(303,236,l),
(303,270,l),
(249,270,ls),
(236,270,o),
(231,278,o),
(231,292,cs),
(231,598,l),
(296,598,ls),
(330,598,o),
(337,576,o),
(337,465,c),
(373,465,l),
(373,630,l),
(39,630,l),
(39,465,l),
(75,465,l),
(75,576,o),
(82,598,o),
(116,598,cs),
(181,598,l),
(181,292,ls),
(181,278,o),
(176,270,o),
(162,270,cs),
(108,270,l)
);
},
{
closed = 1;
nodes = (
(396,236,l),
(547,236,l),
(547,270,l),
(507,270,ls),
(496,270,o),
(492,279,o),
(492,291,c),
(492,630,l),
(395,630,l),
(395,597,l),
(436,597,ls),
(449,597,o),
(454,589,o),
(454,576,cs),
(454,291,ls),
(454,279,o),
(449,270,o),
(436,270,cs),
(396,270,l)
);
},
{
closed = 1;
nodes = (
(733,236,l),
(899,236,l),
(899,270,l),
(856,270,ls),
(844,270,o),
(840,279,o),
(840,291,cs),
(840,576,ls),
(840,589,o),
(844,597,o),
(856,597,cs),
(899,597,l),
(899,630,l),
(790,630,l),
(790,291,l),
(790,279,o),
(786,270,o),
(772,270,cs),
(733,270,l)
);
},
{
closed = 1;
nodes = (
(474,630,l),
(491,576,l),
(494,576,l),
(609,236,l),
(670,236,l),
(787,576,l),
(791,576,l),
(807,630,l),
(767,630,l),
(646,283,l),
(643,283,l),
(525,630,l)
);
}
);
width = 938;
},
{
layerId = m002;
width = 600;
}
);
unicode = 8482;
},
{
color = 11;
export = 0;
glyphname = degree;
lastChange = "2025-06-27 05:07:40 +0000";
layers = (
{
layerId = "5DAEE4C7-75B6-49C7-8B62-3AAE62732CCA";
name = "Light Condensed";
shapes = (
{
closed = 1;
nodes = (
(212,540,o),
(249,532,o),
(249,519,cs),
(249,506,o),
(212,498,o),
(159,498,cs),
(106,498,o),
(68,506,o),
(68,519,cs),
(68,532,o),
(106,540,o),
(159,540,cs)
);
},
{
closed = 1;
nodes = (
(196,417,o),
(225,461,o),
(225,519,cs),
(225,577,o),
(196,622,o),
(159,622,cs),
(121,622,o),
(92,577,o),
(92,519,cs),
(92,461,o),
(121,417,o),
(159,417,cs)
);
}
);
width = 318;
},
{
layerId = m002;
width = 600;
}
);
unicode = 176;
},
{
color = 11;
export = 0;
glyphname = bar;
lastChange = "2025-06-27 05:07:40 +0000";
layers = (
{
layerId = "5DAEE4C7-75B6-49C7-8B62-3AAE62732CCA";
name = "Light Condensed";
shapes = (
{
closed = 1;
nodes = (
(136,-122,l),
(180,-122,l),
(180,666,l),
(136,666,l)
);
}
);
width = 316;
},
{
layerId = m002;
width = 600;
}
);
unicode = 124;
},
{
color = 11;
export = 0;
glyphname = brokenbar;
lastChange = "2025-06-27 05:07:40 +0000";
layers = (
{
layerId = "5DAEE4C7-75B6-49C7-8B62-3AAE62732CCA";
name = "Light Condensed";
shapes = (
{
closed = 1;
nodes = (
(136,336,l),
(180,336,l),
(180,666,l),
(136,666,l)
);
},
{
closed = 1;
nodes = (
(136,-122,l),
(180,-122,l),
(180,208,l),
(136,208,l)
);
}
);
width = 316;
},
{
layerId = m002;
width = 600;
}
);
unicode = 166;
},
{
color = 11;
export = 0;
glyphname = dagger;
lastChange = "2025-06-27 05:07:40 +0000";
layers = (
{
layerId = "5DAEE4C7-75B6-49C7-8B62-3AAE62732CCA";
name = "Light Condensed";
shapes = (
{
closed = 1;
nodes = (
(232,43,o),
(254,-51,o),
(254,-81,cs),
(254,-106,o),
(237,-124,o),
(213,-124,cs),
(190,-124,o),
(173,-106,o),
(173,-81,cs),
(173,-51,o),
(194,43,o),
(194,403,cs),
(194,522,o),
(173,581,o),
(173,625,cs),
(173,657,o),
(187,675,o),
(213,675,cs),
(240,675,o),
(254,657,o),
(254,625,cs),
(254,581,o),
(232,522,o),
(232,403,cs)
);
},
{
closed = 1;
nodes = (
(251,416,o),
(333,436,o),
(364,436,cs),
(392,436,o),
(410,421,o),
(410,397,cs),
(410,374,o),
(393,360,o),
(365,360,cs),
(329,360,o),
(252,385,o),
(212,385,cs),
(171,385,o),
(97,360,o),
(61,360,cs),
(32,360,o),
(16,374,o),
(16,397,cs),
(16,421,o),
(33,436,o),
(62,436,cs),
(93,436,o),
(171,416,o),
(211,416,cs)
);
}
);
width = 426;
},
{
layerId = m002;
width = 600;
}
);
unicode = 8224;
},
{
color = 11;
export = 0;
glyphname = daggerdbl;
lastChange = "2025-06-27 05:07:40 +0000";
layers = (
{
layerId = "5DAEE4C7-75B6-49C7-8B62-3AAE62732CCA";
name = "Light Condensed";
shapes = (
{
closed = 1;
nodes = (
(232,43,o),
(254,-51,o),
(254,-81,cs),
(254,-106,o),
(237,-124,o),
(213,-124,cs),
(190,-124,o),
(173,-106,o),
(173,-81,cs),
(173,-51,o),
(194,43,o),
(194,403,cs),
(194,522,o),
(173,581,o),
(173,625,cs),
(173,657,o),
(187,675,o),
(213,675,cs),
(240,675,o),
(254,657,o),
(254,625,cs),
(254,581,o),
(232,522,o),
(232,403,cs)
);
},
{
closed = 1;
nodes = (
(251,416,o),
(333,436,o),
(364,436,cs),
(392,436,o),
(410,421,o),
(410,397,cs),
(410,374,o),
(393,360,o),
(365,360,cs),
(329,360,o),
(252,385,o),
(212,385,cs),
(171,385,o),
(97,360,o),
(61,360,cs),
(32,360,o),
(16,374,o),
(16,397,cs),
(16,421,o),
(33,436,o),
(62,436,cs),
(93,436,o),
(172,416,o),
(211,416,cs)
);
},
{
closed = 1;
nodes = (
(251,196,o),
(333,216,o),
(364,216,cs),
(392,216,o),
(410,201,o),
(410,177,cs),
(410,154,o),
(393,140,o),
(365,140,cs),
(329,140,o),
(252,165,o),
(212,165,cs),
(171,165,o),
(97,140,o),
(61,140,cs),
(32,140,o),
(16,154,o),
(16,177,cs),
(16,201,o),
(33,216,o),
(62,216,cs),
(93,216,o),
(171,196,o),
(211,196,cs)
);
}
);
width = 426;
},
{
layerId = m002;
width = 600;
}
);
unicode = 8225;
},
{
color = 11;
export = 0;
glyphname = servicemark;
lastChange = "2025-06-27 05:07:40 +0000";
layers = (
{
layerId = "5DAEE4C7-75B6-49C7-8B62-3AAE62732CCA";
name = "Light Condensed";
shapes = (
{
closed = 1;
nodes = (
(126,263,o),
(83,305,o),
(83,381,c),
(51,381,l),
(51,236,l),
(82,236,l),
(86,274,l),
(88,274,l),
(113,245,o),
(156,230,o),
(205,230,cs),
(284,230,o),
(336,272,o),
(336,337,cs),
(336,479,o),
(99,441,o),
(99,539,cs),
(99,577,o),
(135,601,o),
(190,601,cs),
(258,601,o),
(292,565,o),
(292,493,c),
(325,493,l),
(325,630,l),
(296,630,l),
(291,596,l),
(289,596,l),
(265,621,o),
(227,635,o),
(183,635,cs),
(106,635,o),
(56,594,o),
(56,531,cs),
(56,395,o),
(293,436,o),
(293,331,cs),
(293,289,o),
(257,263,o),
(200,263,cs)
);
},
{
closed = 1;
nodes = (
(376,236,l),
(523,236,l),
(523,268,l),
(483,268,ls),
(472,268,o),
(467,276,o),
(467,289,c),
(467,630,l),
(375,630,l),
(375,598,l),
(415,598,ls),
(429,598,o),
(434,590,o),
(434,577,cs),
(434,289,ls),
(434,276,o),
(429,268,o),
(416,268,cs),
(376,268,l)
);
},
{
closed = 1;
nodes = (
(717,236,l),
(879,236,l),
(879,268,l),
(836,268,ls),
(824,268,o),
(820,276,o),
(820,289,cs),
(820,577,ls),
(820,590,o),
(824,598,o),
(836,598,cs),
(879,598,l),
(879,630,l),
(774,630,l),
(774,289,l),
(774,276,o),
(770,268,o),
(756,268,cs),
(717,268,l)
);
},
{
closed = 1;
nodes = (
(452,630,l),
(466,578,l),
(470,578,l),
(593,236,l),
(646,236,l),
(772,578,l),
(775,578,l),
(792,630,l),
(755,630,l),
(626,282,l),
(623,282,l),
(499,630,l)
);
}
);
width = 894;
},
{
layerId = m002;
width = 600;
}
);
unicode = 8480;
},
{
color = 11;
export = 0;
glyphname = cent;
lastChange = "2025-06-27 05:07:40 +0000";
layers = (
{
layerId = "5DAEE4C7-75B6-49C7-8B62-3AAE62732CCA";
name = "Light Condensed";
shapes = (
{
closed = 1;
nodes = (
(154,127,o),
(114,185,o),
(114,311,cs),
(114,437,o),
(153,493,o),
(241,493,cs),
(295,493,o),
(327,473,o),
(327,439,cs),
(327,414,o),
(308,409,o),
(308,383,cs),
(308,360,o),
(323,345,o),
(347,345,cs),
(378,345,o),
(397,370,o),
(397,413,cs),
(397,493,o),
(334,545,o),
(238,545,cs),
(114,545,o),
(43,459,o),
(43,307,cs),
(43,160,o),
(111,75,o),
(231,75,cs),
(340,75,o),
(401,144,o),
(401,267,c),
(347,267,l),
(343,170,o),
(308,127,o),
(237,127,cs)
);
},
{
closed = 1;
nodes = (
(351,469,l),
(346,435,l),
(317,409,l),
(148,137,l),
(133,113,l),
(75,16,l),
(123,16,l),
(453,562,l),
(405,562,l)
);
}
);
width = 440;
},
{
layerId = m002;
width = 600;
}
);
unicode = 162;
},
{
color = 11;
export = 0;
glyphname = colonsign;
lastChange = "2025-06-27 05:07:40 +0000";
layers = (
{
layerId = "5DAEE4C7-75B6-49C7-8B62-3AAE62732CCA";
name = "Light Condensed";
shapes = (
{
closed = 1;
nodes = (
(154,127,o),
(114,185,o),
(114,311,cs),
(114,437,o),
(153,493,o),
(241,493,cs),
(295,493,o),
(329,473,o),
(329,439,cs),
(329,414,o),
(309,409,o),
(309,383,cs),
(309,360,o),
(324,345,o),
(349,345,cs),
(380,345,o),
(398,370,o),
(398,413,cs),
(398,493,o),
(334,545,o),
(238,545,cs),
(114,545,o),
(43,459,o),
(43,307,cs),
(43,160,o),
(111,75,o),
(231,75,cs),
(340,75,o),
(401,144,o),
(401,267,c),
(349,267,l),
(345,170,o),
(310,127,o),
(238,127,cs)
);
},
{
closed = 1;
nodes = (
(353,469,l),
(347,435,l),
(318,409,l),
(149,137,l),
(134,113,l),
(85,30,l),
(133,30,l),
(463,577,l),
(416,577,l)
);
},
{
closed = 1;
nodes = (
(-12,30,l),
(36,30,l),
(115,164,l),
(190,287,l),
(267,412,l),
(324,504,l),
(366,576,l),
(318,576,l)
);
}
);
width = 440;
},
{
layerId = m002;
width = 600;
}
);
unicode = 8353;
},
{
color = 11;
export = 0;
glyphname = currency;
lastChange = "2025-06-27 05:07:40 +0000";
layers = (
{
layerId = "5DAEE4C7-75B6-49C7-8B62-3AAE62732CCA";
name = "Light Condensed";
shapes = (
{
closed = 1;
nodes = (
(303,167,o),
(372,236,o),
(372,319,cs),
(372,403,o),
(303,472,o),
(207,472,cs),
(110,472,o),
(41,403,o),
(41,319,cs),
(41,236,o),
(110,167,o),
(207,167,cs)
);
},
{
closed = 1;
nodes = (
(141,224,o),
(100,265,o),
(100,321,cs),
(100,377,o),
(141,417,o),
(207,417,cs),
(273,417,o),
(315,377,o),
(315,321,cs),
(315,265,o),
(273,224,o),
(207,224,cs)
);
},
{
closed = 1;
nodes = (
(174,471,l),
(138,474,l),
(155,413,l),
(190,413,l)
);
},
{
closed = 1;
nodes = (
(241,166,l),
(277,163,l),
(258,227,l),
(223,227,l)
);
},
{
closed = 1;
nodes = (
(42,292,l),
(38,256,l),
(99,274,l),
(99,309,l)
);
},
{
closed = 1;
nodes = (
(373,345,l),
(376,381,l),
(312,362,l),
(312,327,l)
);
}
);
width = 414;
},
{
layerId = m002;
width = 600;
}
);
unicode = 164;
},
{
color = 11;
export = 0;
glyphname = dollar;
lastChange = "2025-06-27 05:07:40 +0000";
layers = (
{
layerId = "5DAEE4C7-75B6-49C7-8B62-3AAE62732CCA";
name = "Light Condensed";
shapes = (
{
closed = 1;
nodes = (
(264,34,l),
(282,21,l),
(264,0,l),
(264,-90,l),
(314,-90,l),
(314,592,l),
(293,611,l),
(314,628,l),
(314,715,l),
(264,715,l)
);
},
{
closed = 1;
nodes = (
(426,-10,o),
(514,55,o),
(514,163,cs),
(514,387,o),
(127,329,o),
(127,485,cs),
(127,546,o),
(187,584,o),
(285,584,cs),
(373,584,o),
(428,553,o),
(428,502,cs),
(428,472,o),
(407,464,o),
(407,438,cs),
(407,415,o),
(423,400,o),
(447,400,cs),
(479,400,o),
(497,427,o),
(497,475,cs),
(497,578,o),
(417,639,o),
(282,639,cs),
(144,639,o),
(58,574,o),
(58,472,cs),
(58,255,o),
(445,321,o),
(445,150,cs),
(445,83,o),
(385,44,o),
(282,44,cs),
(183,44,o),
(118,81,o),
(118,136,cs),
(118,169,o),
(139,177,o),
(139,203,cs),
(139,225,o),
(123,239,o),
(99,239,cs),
(67,239,o),
(48,211,o),
(48,163,cs),
(48,56,o),
(137,-10,o),
(283,-10,cs)
);
}
);
width = 563;
},
{
layerId = m002;
width = 600;
}
);
unicode = 36;
},
{
color = 11;
export = 0;
glyphname = euro;
lastChange = "2025-06-27 05:07:40 +0000";
layers = (
{
layerId = "5DAEE4C7-75B6-49C7-8B62-3AAE62732CCA";
name = "Light Condensed";
shapes = (
{
closed = 1;
nodes = (
(208,48,o),
(135,131,o),
(135,315,cs),
(135,494,o),
(205,582,o),
(342,582,cs),
(447,582,o),
(507,531,o),
(522,400,c),
(574,400,l),
(574,630,l),
(528,630,l),
(518,553,l),
(514,553,l),
(479,610,o),
(418,640,o),
(330,640,cs),
(156,640,o),
(58,525,o),
(58,315,cs),
(58,109,o),
(153,-10,o),
(325,-10,cs),
(412,-10,o),
(473,22,o),
(514,87,c),
(518,87,l),
(529,0,l),
(574,0,l),
(574,240,l),
(522,240,l),
(506,105,o),
(443,48,o),
(337,48,cs)
);
},
{
closed = 1;
nodes = (
(-37,338,l),
(356,338,l),
(369,385,l),
(-24,385,l)
);
},
{
closed = 1;
nodes = (
(-37,238,l),
(331,238,l),
(344,285,l),
(-24,285,l)
);
}
);
width = 633;
},
{
layerId = m002;
width = 600;
}
);
unicode = 8364;
},
{
color = 11;
export = 0;
glyphname = franc;
lastChange = "2025-06-27 05:07:40 +0000";
layers = (
{
layerId = "5DAEE4C7-75B6-49C7-8B62-3AAE62732CCA";
name = "Light Condensed";
shapes = (
{
closed = 1;
nodes = (
(24,0,l),
(309,0,l),
(309,50,l),
(220,50,ls),
(199,50,o),
(186,65,o),
(186,90,cs),
(186,293,l),
(313,293,ls),
(347,293,o),
(356,271,o),
(356,200,c),
(403,200,l),
(403,431,l),
(356,431,l),
(356,356,o),
(347,339,o),
(313,339,cs),
(186,339,l),
(186,580,l),
(432,580,ls),
(482,580,o),
(504,559,o),
(504,407,c),
(560,407,l),
(560,630,l),
(24,630,l),
(24,580,l),
(81,580,ls),
(104,580,o),
(113,570,o),
(113,543,cs),
(113,83,ls),
(113,60,o),
(102,50,o),
(84,50,cs),
(24,50,l)
);
},
{
closed = 1;
nodes = (
(24,125,l),
(302,125,l),
(302,170,l),
(24,170,l)
);
}
);
width = 619;
},
{
layerId = m002;
width = 600;
}
);
unicode = 8355;
},
{
color = 11;
export = 0;
glyphname = lira;
lastChange = "2025-06-27 05:07:40 +0000";
layers = (
{
layerId = "5DAEE4C7-75B6-49C7-8B62-3AAE62732CCA";
name = "Light Condensed";
shapes = (
{
closed = 1;
nodes = (
(368,587,o),
(421,559,o),
(421,515,cs),
(421,486,o),
(399,483,o),
(399,454,cs),
(399,430,o),
(415,414,o),
(440,414,cs),
(473,414,o),
(494,442,o),
(494,488,cs),
(494,582,o),
(412,640,o),
(280,640,cs),
(139,640,o),
(55,573,o),
(55,460,cs),
(55,361,o),
(120,326,o),
(120,259,cs),
(120,190,o),
(53,143,o),
(53,54,cs),
(53,11,o),
(69,-10,o),
(103,-10,cs),
(128,-10,o),
(144,2,o),
(144,21,cs),
(144,39,o),
(131,40,o),
(131,51,cs),
(131,65,o),
(151,74,o),
(180,74,cs),
(269,74,o),
(282,-9,o),
(378,-9,cs),
(469,-9,o),
(516,65,o),
(516,205,cs),
(516,238,l),
(462,238,l),
(462,118,o),
(432,58,o),
(371,58,cs),
(311,58,o),
(284,119,o),
(203,119,cs),
(172,119,o),
(147,109,o),
(132,92,c),
(130,93,l),
(136,153,o),
(196,181,o),
(196,260,cs),
(196,344,o),
(131,371,o),
(131,463,cs),
(131,545,o),
(183,587,o),
(285,587,cs)
);
},
{
closed = 1;
nodes = (
(12,337,l),
(329,337,l),
(329,381,l),
(12,381,l)
);
},
{
closed = 1;
nodes = (
(12,241,l),
(329,241,l),
(329,285,l),
(12,285,l)
);
}
);
width = 566;
},
{
layerId = m002;
width = 600;
}
);
unicode = 8356;
},
{
color = 11;
export = 0;
glyphname = liraTurkish;
lastChange = "2025-06-27 05:07:40 +0000";
layers = (
{
layerId = "5DAEE4C7-75B6-49C7-8B62-3AAE62732CCA";
name = "Light Condensed";
shapes = (
{
closed = 1;
nodes = (
(426,0,o),
(496,61,o),
(496,173,cs),
(496,236,o),
(478,262,o),
(446,262,cs),
(421,262,o),
(405,247,o),
(405,221,cs),
(405,190,o),
(428,181,o),
(428,136,cs),
(428,78,o),
(382,51,o),
(311,51,cs),
(186,51,l),
(186,545,ls),
(186,568,o),
(193,580,o),
(215,580,cs),
(293,580,l),
(293,630,l),
(24,630,l),
(24,580,l),
(83,580,ls),
(105,580,o),
(113,568,o),
(113,544,cs),
(113,84,ls),
(113,62,o),
(104,50,o),
(84,50,cs),
(24,50,l),
(24,0,l),
(311,0,ls)
);
},
{
closed = 1;
nodes = (
(25,260,l),
(338,436,l),
(338,488,l),
(25,312,l)
);
},
{
closed = 1;
nodes = (
(25,145,l),
(338,321,l),
(338,373,l),
(25,197,l)
);
}
);
width = 571;
},
{
layerId = m002;
width = 600;
}
);
unicode = 8378;
},
{
color = 11;
export = 0;
glyphname = naira;
lastChange = "2025-06-27 05:07:40 +0000";
layers = (
{
layerId = "5DAEE4C7-75B6-49C7-8B62-3AAE62732CCA";
name = "Light Condensed";
shapes = (
{
closed = 1;
nodes = (
(24,0,l),
(268,0,l),
(268,50,l),
(208,50,ls),
(190,50,o),
(183,64,o),
(183,84,cs),
(183,517,l),
(187,517,l),
(533,0,l),
(605,0,l),
(605,546,ls),
(605,566,o),
(612,580,o),
(632,580,cs),
(695,580,l),
(695,630,l),
(447,630,l),
(447,580,l),
(508,580,ls),
(529,580,o),
(536,566,o),
(536,546,cs),
(536,123,l),
(532,123,l),
(193,630,l),
(23,630,l),
(23,580,l),
(84,580,ls),
(106,580,o),
(113,566,o),
(113,546,cs),
(113,84,ls),
(113,64,o),
(106,50,o),
(84,50,cs),
(24,50,l)
);
},
{
closed = 1;
nodes = (
(25,339,l),
(694,339,l),
(694,383,l),
(25,383,l)
);
},
{
closed = 1;
nodes = (
(25,243,l),
(694,243,l),
(694,286,l),
(25,286,l)
);
}
);
width = 718;
},
{
layerId = m002;
width = 600;
}
);
unicode = 8358;
},
{
color = 11;
export = 0;
glyphname = rupeeIndian;
lastChange = "2025-06-27 05:07:40 +0000";
layers = (
{
layerId = "5DAEE4C7-75B6-49C7-8B62-3AAE62732CCA";
name = "Light Condensed";
shapes = (
{
closed = 1;
nodes = (
(369,586,o),
(417,540,o),
(417,462,cs),
(417,383,o),
(367,339,o),
(260,339,cs),
(23,339,l),
(23,283,l),
(274,283,ls),
(408,283,o),
(491,351,o),
(491,461,cs),
(491,565,o),
(416,630,o),
(275,630,cs),
(23,630,l),
(23,586,l),
(270,586,ls)
);
},
{
closed = 1;
nodes = (
(525,-10,o),
(555,28,o),
(555,104,cs),
(555,171,l),
(505,171,l),
(505,114,ls),
(505,66,o),
(492,47,o),
(463,47,cs),
(433,47,o),
(420,66,o),
(420,115,cs),
(420,164,ls),
(420,232,o),
(404,277,o),
(371,294,c),
(371,299,l),
(357,308,o),
(331,312,o),
(261,312,c),
(253,283,l),
(325,283,o),
(349,253,o),
(349,157,cs),
(349,104,ls),
(349,29,o),
(385,-10,o),
(456,-10,cs)
);
},
{
closed = 1;
nodes = (
(23,586,l),
(592,586,l),
(592,630,l),
(23,630,l)
);
},
{
closed = 1;
nodes = (
(23,472,l),
(592,472,l),
(592,516,l),
(23,516,l)
);
}
);
width = 599;
},
{
layerId = m002;
width = 600;
}
);
unicode = 8377;
},
{
color = 11;
export = 0;
glyphname = sterling;
lastChange = "2025-06-27 05:07:40 +0000";
layers = (
{
layerId = "5DAEE4C7-75B6-49C7-8B62-3AAE62732CCA";
name = "Light Condensed";
shapes = (
{
closed = 1;
nodes = (
(368,587,o),
(421,559,o),
(421,515,cs),
(421,486,o),
(399,483,o),
(399,454,cs),
(399,430,o),
(415,414,o),
(440,414,cs),
(473,414,o),
(494,442,o),
(494,488,cs),
(494,582,o),
(412,640,o),
(280,640,cs),
(139,640,o),
(55,573,o),
(55,460,cs),
(55,361,o),
(120,326,o),
(120,259,cs),
(120,190,o),
(53,143,o),
(53,54,cs),
(53,11,o),
(69,-10,o),
(103,-10,cs),
(128,-10,o),
(144,2,o),
(144,21,cs),
(144,39,o),
(131,40,o),
(131,51,cs),
(131,65,o),
(151,74,o),
(180,74,cs),
(269,74,o),
(282,-9,o),
(378,-9,cs),
(469,-9,o),
(516,65,o),
(516,205,cs),
(516,238,l),
(462,238,l),
(462,118,o),
(432,58,o),
(371,58,cs),
(311,58,o),
(284,119,o),
(203,119,cs),
(172,119,o),
(147,109,o),
(132,92,c),
(130,93,l),
(136,153,o),
(196,181,o),
(196,260,cs),
(196,344,o),
(131,371,o),
(131,463,cs),
(131,545,o),
(183,587,o),
(285,587,cs)
);
},
{
closed = 1;
nodes = (
(12,287,l),
(338,287,l),
(338,330,l),
(12,330,l)
);
}
);
width = 566;
},
{
layerId = m002;
width = 600;
}
);
unicode = 163;
},
{
color = 11;
export = 0;
glyphname = won;
lastChange = "2025-06-27 05:07:40 +0000";
layers = (
{
layerId = "5DAEE4C7-75B6-49C7-8B62-3AAE62732CCA";
name = "Light Condensed";
shapes = (
{
closed = 1;
nodes = (
(13,580,l),
(59,580,ls),
(85,580,o),
(97,569,o),
(106,539,cs),
(275,0,l),
(366,0,l),
(539,541,l),
(477,539,l),
(333,72,l),
(329,72,l),
(185,539,ls),
(183,545,o),
(182,552,o),
(182,556,cs),
(182,572,o),
(193,580,o),
(213,580,cs),
(275,580,l),
(275,630,l),
(13,630,l)
);
},
{
closed = 1;
nodes = (
(381,580,l),
(428,580,ls),
(452,580,o),
(466,569,o),
(474,539,cs),
(504,428,l),
(509,428,l),
(644,0,l),
(734,0,l),
(906,541,ls),
(916,572,o),
(925,580,o),
(949,580,cs),
(995,580,l),
(995,630,l),
(756,630,l),
(756,580,l),
(818,580,ls),
(839,580,o),
(848,571,o),
(848,556,cs),
(848,551,o),
(847,546,o),
(845,539,cs),
(701,72,l),
(696,72,l),
(553,539,ls),
(551,545,o),
(550,552,o),
(550,556,cs),
(550,572,o),
(561,580,o),
(580,580,cs),
(644,580,l),
(644,630,l),
(381,630,l)
);
},
{
closed = 1;
nodes = (
(20,298,l),
(988,298,l),
(988,342,l),
(20,342,l)
);
},
{
closed = 1;
nodes = (
(20,199,l),
(988,199,l),
(988,243,l),
(20,243,l)
);
}
);
width = 1008;
},
{
layerId = m002;
width = 600;
}
);
unicode = 8361;
},
{
color = 11;
export = 0;
glyphname = yen;
lastChange = "2025-06-27 05:07:40 +0000";
layers = (
{
layerId = "5DAEE4C7-75B6-49C7-8B62-3AAE62732CCA";
name = "Light Condensed";
shapes = (
{
closed = 1;
nodes = (
(7,580,l),
(38,580,ls),
(66,580,o),
(82,573,o),
(101,541,cs),
(296,233,l),
(353,244,l),
(536,544,ls),
(553,573,o),
(563,580,o),
(591,580,cs),
(624,580,l),
(624,630,l),
(384,630,l),
(384,580,l),
(451,580,ls),
(468,580,o),
(480,573,o),
(480,560,cs),
(480,554,o),
(477,546,o),
(473,539,cs),
(332,308,l),
(328,308,l),
(187,539,ls),
(183,546,o),
(181,553,o),
(181,559,cs),
(181,571,o),
(190,580,o),
(208,580,cs),
(277,580,l),
(277,630,l),
(7,630,l)
);
},
{
closed = 1;
nodes = (
(199,0,l),
(454,0,l),
(454,50,l),
(390,50,ls),
(371,50,o),
(363,63,o),
(363,84,cs),
(363,300,l),
(290,300,l),
(290,84,ls),
(290,63,o),
(282,50,o),
(260,50,cs),
(199,50,l)
);
},
{
closed = 1;
nodes = (
(199,130,l),
(454,130,l),
(454,176,l),
(199,176,l)
);
}
);
width = 630;
},
{
layerId = m002;
width = 600;
}
);
unicode = 165;
},
{
color = 11;
export = 0;
glyphname = divisionslash;
lastChange = "2025-06-27 05:07:40 +0000";
layers = (
{
layerId = "5DAEE4C7-75B6-49C7-8B62-3AAE62732CCA";
name = "Light Condensed";
shapes = (
{
closed = 1;
nodes = (
(31,-10,l),
(220,675,l),
(182,675,l),
(-8,-10,l)
);
}
);
width = 213;
},
{
layerId = m002;
width = 600;
}
);
unicode = 8725;
},
{
color = 11;
export = 0;
glyphname = plus;
lastChange = "2025-06-27 05:07:40 +0000";
layers = (
{
layerId = "5DAEE4C7-75B6-49C7-8B62-3AAE62732CCA";
name = "Light Condensed";
shapes = (
{
closed = 1;
nodes = (
(446,279,l),
(446,323,l),
(30,323,l),
(30,279,l)
);
},
{
closed = 1;
nodes = (
(216,85,l),
(260,85,l),
(260,512,l),
(216,512,l)
);
}
);
width = 476;
},
{
layerId = m002;
width = 600;
}
);
unicode = 43;
},
{
color = 11;
export = 0;
glyphname = minus;
lastChange = "2025-06-27 05:07:40 +0000";
layers = (
{
layerId = "5DAEE4C7-75B6-49C7-8B62-3AAE62732CCA";
name = "Light Condensed";
shapes = (
{
closed = 1;
nodes = (
(446,279,l),
(446,323,l),
(30,323,l),
(30,279,l)
);
}
);
width = 476;
},
{
layerId = m002;
width = 600;
}
);
unicode = 8722;
},
{
color = 11;
export = 0;
glyphname = multiply;
lastChange = "2025-06-27 05:07:40 +0000";
layers = (
{
layerId = "5DAEE4C7-75B6-49C7-8B62-3AAE62732CCA";
name = "Light Condensed";
shapes = (
{
closed = 1;
nodes = (
(399,109,l),
(430,140,l),
(80,491,l),
(49,460,l)
);
},
{
closed = 1;
nodes = (
(44,135,l),
(75,104,l),
(433,461,l),
(401,493,l)
);
}
);
width = 476;
},
{
layerId = m002;
width = 600;
}
);
unicode = 215;
},
{
color = 11;
export = 0;
glyphname = divide;
lastChange = "2025-06-27 05:07:40 +0000";
layers = (
{
layerId = "5DAEE4C7-75B6-49C7-8B62-3AAE62732CCA";
name = "Light Condensed";
shapes = (
{
closed = 1;
nodes = (
(446,279,l),
(446,323,l),
(30,323,l),
(30,279,l)
);
},
{
closed = 1;
nodes = (
(268,400,o),
(293,425,o),
(293,454,cs),
(293,484,o),
(268,509,o),
(238,509,cs),
(208,509,o),
(184,484,o),
(184,454,cs),
(184,425,o),
(208,400,o),
(238,400,cs)
);
},
{
closed = 1;
nodes = (
(268,93,o),
(293,118,o),
(293,147,cs),
(293,177,o),
(268,202,o),
(238,202,cs),
(208,202,o),
(184,177,o),
(184,147,cs),
(184,118,o),
(208,93,o),
(238,93,cs)
);
}
);
width = 476;
},
{
layerId = m002;
width = 600;
}
);
unicode = 247;
},
{
color = 11;
export = 0;
glyphname = equal;
lastChange = "2025-06-27 05:07:40 +0000";
layers = (
{
layerId = "5DAEE4C7-75B6-49C7-8B62-3AAE62732CCA";
name = "Light Condensed";
shapes = (
{
closed = 1;
nodes = (
(444,346,l),
(444,390,l),
(30,390,l),
(30,346,l)
);
},
{
closed = 1;
nodes = (
(444,187,l),
(444,231,l),
(30,231,l),
(30,187,l)
);
}
);
width = 476;
},
{
layerId = m002;
width = 600;
}
);
unicode = 61;
},
{
color = 11;
export = 0;
glyphname = notequal;
lastChange = "2025-06-27 05:07:40 +0000";
layers = (
{
layerId = "5DAEE4C7-75B6-49C7-8B62-3AAE62732CCA";
name = "Light Condensed";
shapes = (
{
closed = 1;
nodes = (
(89,75,l),
(137,75,l),
(389,498,l),
(341,498,l)
);
},
{
alignment = -1;
ref = equal;
}
);
width = 476;
},
{
layerId = m002;
width = 600;
}
);
unicode = 8800;
},
{
color = 11;
export = 0;
glyphname = less;
lastChange = "2025-06-27 05:07:40 +0000";
layers = (
{
layerId = "5DAEE4C7-75B6-49C7-8B62-3AAE62732CCA";
name = "Light Condensed";
shapes = (
{
closed = 1;
nodes = (
(230,368,l),
(445,301,l),
(245,228,l),
(30,296,l)
);
},
{
closed = 1;
nodes = (
(245,372,l),
(445,300,l),
(230,233,l),
(30,304,l)
);
}
);
width = 476;
},
{
layerId = m002;
width = 600;
}
);
unicode = 60;
},
{
color = 11;
export = 0;
glyphname = approxequal;
lastChange = "2025-06-27 05:07:40 +0000";
layers = (
{
layerId = "5DAEE4C7-75B6-49C7-8B62-3AAE62732CCA";
name = "Light Condensed";
shapes = (
{
closed = 1;
nodes = (
(425,418,l),
(400,389,o),
(365,371,o),
(331,371,cs),
(261,371,o),
(227,425,o),
(144,425,cs),
(101,425,o),
(66,406,o),
(28,359,c),
(54,327,l),
(82,362,o),
(111,379,o),
(142,379,cs),
(208,379,o),
(249,325,o),
(329,325,cs),
(370,325,o),
(409,344,o),
(449,384,c)
);
},
{
closed = 1;
nodes = (
(425,272,l),
(400,242,o),
(365,224,o),
(331,224,cs),
(261,224,o),
(227,278,o),
(144,278,cs),
(101,278,o),
(66,259,o),
(28,212,c),
(54,181,l),
(81,214,o),
(111,232,o),
(142,232,cs),
(208,232,o),
(249,178,o),
(329,178,cs),
(370,178,o),
(409,197,o),
(449,237,c)
);
}
);
width = 476;
},
{
layerId = m002;
width = 600;
}
);
unicode = 8776;
},
{
color = 11;
export = 0;
glyphname = logicalnot;
lastChange = "2025-06-27 05:07:40 +0000";
layers = (
{
layerId = "5DAEE4C7-75B6-49C7-8B62-3AAE62732CCA";
name = "Light Condensed";
shapes = (
{
closed = 1;
nodes = (
(446,319,l),
(446,363,l),
(30,363,l),
(30,319,l)
);
},
{
closed = 1;
nodes = (
(403,180,l),
(446,180,l),
(446,363,l),
(403,363,l)
);
}
);
width = 476;
},
{
layerId = m002;
width = 600;
}
);
unicode = 172;
},
{
color = 11;
export = 0;
glyphname = micro;
lastChange = "2025-06-27 05:07:40 +0000";
layers = (
{
layerId = "5DAEE4C7-75B6-49C7-8B62-3AAE62732CCA";
name = "Light Condensed";
shapes = (
{
closed = 1;
nodes = (
(281,407,l),
(331,407,ls),
(351,407,o),
(358,398,o),
(358,375,cs),
(358,201,ls),
(358,109,o),
(309,47,o),
(234,47,cs),
(176,47,o),
(144,83,o),
(144,142,cs),
(144,450,l),
(-8,450,l),
(-8,407,l),
(49,407,ls),
(68,407,o),
(76,398,o),
(76,376,cs),
(76,140,ls),
(76,58,o),
(142,-10,o),
(225,-10,cs),
(281,-10,o),
(327,19,o),
(354,72,c),
(358,72,l),
(358,0,l),
(506,0,l),
(506,42,l),
(453,42,ls),
(434,42,o),
(426,51,o),
(426,74,cs),
(426,450,l),
(281,450,l)
);
},
{
closed = 1;
nodes = (
(76,151,l),
(76,-76,ls),
(76,-97,o),
(70,-110,o),
(48,-110,cs),
(-7,-110,l),
(-7,-153,l),
(141,-153,l),
(141,151,l)
);
}
);
width = 508;
},
{
layerId = m002;
width = 600;
}
);
unicode = 181;
},
{
color = 11;
export = 0;
glyphname = lozenge;
lastChange = "2025-06-27 05:07:40 +0000";
layers = (
{
layerId = "5DAEE4C7-75B6-49C7-8B62-3AAE62732CCA";
name = "Light Condensed";
shapes = (
{
closed = 1;
nodes = (
(471,301,l),
(288,663,l),
(221,663,l),
(39,301,l),
(225,-60,l),
(284,-60,l)
);
},
{
closed = 1;
nodes = (
(411,301,l),
(256,1,l),
(254,1,l),
(98,301,l),
(253,609,l),
(257,609,l)
);
}
);
width = 511;
},
{
layerId = m002;
width = 600;
}
);
unicode = 9674;
},
{
color = 11;
export = 0;
glyphname = espaciador;
lastChange = "2025-06-27 05:07:40 +0000";
layers = (
{
layerId = "5DAEE4C7-75B6-49C7-8B62-3AAE62732CCA";
name = "Light Condensed";
shapes = (
{
closed = 1;
nodes = (
(0,-314,l),
(68,-314,l),
(68,787,l),
(0,787,l)
);
}
